<?xml version="1.0" encoding="utf-8"?>
<!-- Generator: Adobe Illustrator 16.0.0, SVG Export Plug-In . SVG Version: 6.00 Build 0)  -->
<!DOCTYPE svg PUBLIC "-//W3C//DTD SVG 1.1//EN" "http://www.w3.org/Graphics/SVG/1.1/DTD/svg11.dtd">
<svg version="1.1"
	 id="svg4541" xmlns:sodipodi="http://sodipodi.sourceforge.net/DTD/sodipodi-0.dtd" xmlns:inkscape="http://www.inkscape.org/namespaces/inkscape" xmlns:dc="http://purl.org/dc/elements/1.1/" xmlns:cc="http://creativecommons.org/ns#" xmlns:rdf="http://www.w3.org/1999/02/22-rdf-syntax-ns#" xmlns:svg="http://www.w3.org/2000/svg" sodipodi:docname="VCF.svg" inkscape:version="0.92.2 5c3e80d, 2017-08-06"
	 xmlns="http://www.w3.org/2000/svg" xmlns:xlink="http://www.w3.org/1999/xlink" x="0px" y="0px" width="120.18px" height="380px"
	 viewBox="0 0 120.18 380" enable-background="new 0 0 120.18 380" xml:space="preserve">
<g>
	<path fill="#E6E6E6" d="M-7.693,0.065l135.566-0.042v379.911l-135.566,0.043V0.065z"/>
</g>
<line fill="none" stroke="#505151" stroke-width="1.5" stroke-linecap="square" stroke-miterlimit="10" x1="27.812" y1="321.479" x2="27.812" y2="280.039"/>
<line fill="none" stroke="#505151" stroke-width="1.5" stroke-miterlimit="10" x1="92.852" y1="321.479" x2="92.852" y2="177.978"/>
<line fill="none" stroke="#505151" stroke-width="1.5" stroke-miterlimit="10" x1="59.832" y1="321.479" x2="59.832" y2="43.892"/>
<path fill="none" stroke="#505151" stroke-width="1.5" stroke-miterlimit="10" d="M81.34,334.008"/>
<path fill="none" stroke="#505151" stroke-width="1.5" stroke-miterlimit="10" d="M69.84,334.008"/>
<sodipodi:namedview  fit-margin-left="0" fit-margin-top="0" showgrid="false" inkscape:cy="138.75941" inkscape:cx="-12.284485" inkscape:zoom="1.979899" borderopacity="1.0" bordercolor="#666666" pagecolor="#ffffff" id="base" units="px" inkscape:window-maximized="0" inkscape:window-width="2560" fit-margin-bottom="0" inkscape:window-y="18" inkscape:window-height="1422" inkscape:window-x="0" inkscape:current-layer="g13178" inkscape:pageshadow="2" inkscape:document-units="mm" fit-margin-right="0" inkscape:pageopacity="0.0">
	</sodipodi:namedview>
<g>
	<path stroke="#231F20" stroke-width="0.25" stroke-miterlimit="10" d="M60.129,366.671c-0.378,0.168-1.092,0.31-1.899,0.31
		c-2.22,0-3.635-1.347-3.635-3.502c0-2.004,1.373-3.644,3.929-3.644c0.562,0,1.185,0.101,1.625,0.269l-0.336,1.582
		c-0.259-0.104-0.637-0.211-1.188-0.211c-1.12,0-1.854,0.799-1.835,1.92c0,1.26,0.841,1.92,1.877,1.92
		c0.505,0,0.896-0.086,1.22-0.211L60.129,366.671z"/>
	<path stroke="#231F20" stroke-width="0.25" stroke-miterlimit="10" d="M62.045,361.066h1.271l0.042-0.447
		c0.105-0.938,0.639-3.039,3.04-3.039c0.479,0,0.911,0.098,1.163,0.225l-0.336,1.514c-0.169-0.062-0.396-0.127-0.659-0.127
		c-0.692,0-1.028,0.513-1.112,1.271l-0.092,0.604h1.438v1.482H65.19l-0.312,2.493c-0.211,1.709-0.785,3.063-2.771,3.063
		c-0.568-0.021-1.062-0.125-1.271-0.234l0.294-1.48c0.21,0.084,0.438,0.108,0.659,0.108c0.692-0.019,0.938-0.396,1.14-1.985
		l0.229-1.965H62.05v-1.482H62.045L62.045,361.066z"/>
</g>
<path fill="none" stroke="#6C6C6D" stroke-miterlimit="10" d="M84.956,272.529"/>
<path fill="none" stroke="#6C6C6D" stroke-miterlimit="10" d="M51.257,262.523"/>
<path fill="none" stroke="#6C6C6D" stroke-miterlimit="10" d="M51.257,282.539"/>
<path fill="none" stroke="#6C6C6D" stroke-miterlimit="10" d="M38.465,282.539"/>
<path fill="none" stroke="#6C6C6D" stroke-miterlimit="10" d="M84.956,327.561"/>
<path fill="none" stroke="#6C6C6D" stroke-miterlimit="10" d="M57.261,322.559"/>
<path fill="none" stroke="#6C6C6D" stroke-miterlimit="10" d="M84.956,297.542"/>
<path fill="none" stroke="#6C6C6D" stroke-miterlimit="10" d="M51.257,292.541"/>
<path fill="none" stroke="#303232" stroke-miterlimit="10" d="M60.833,312.561"/>
<path fill="none" stroke="#303232" stroke-miterlimit="10" d="M44.469,312.561"/>
<path fill="none" stroke="#303232" stroke-miterlimit="10" d="M84.956,282.535"/>
<path fill="none" stroke="#303232" stroke-miterlimit="10" d="M60.833,272.529"/>
<path fill="none" stroke="#303232" stroke-miterlimit="10" d="M84.956,337.564"/>
<path fill="none" stroke="#303232" stroke-miterlimit="10" d="M60.833,332.564"/>
<path fill="none" stroke="#303232" stroke-miterlimit="10" d="M85.957,307.548"/>
<path fill="none" stroke="#303232" stroke-miterlimit="10" d="M61.195,302.547"/>
<path fill="none" stroke="#6C6C6D" stroke-miterlimit="10" d="M51.089,262.523"/>
<path fill="none" stroke="#6C6C6D" stroke-miterlimit="10" d="M57.093,322.559"/>
<path fill="none" stroke="#303232" stroke-miterlimit="10" d="M61.095,272.529"/>
<path fill="none" stroke="#303232" stroke-miterlimit="10" d="M61.095,332.564"/>
<g>
	<path stroke="#000000" stroke-width="0.5" stroke-miterlimit="10" d="M89.946,63.118c0,1.985-1.2,3.19-2.979,3.19
		c-1.8,0-2.854-1.354-2.854-3.088c0-1.813,1.153-3.188,2.946-3.188C88.927,60.051,89.946,61.446,89.946,63.118z M85.559,63.2
		c0,1.188,0.562,2.023,1.479,2.023c0.928,0,1.459-0.883,1.459-2.061c0-1.092-0.521-2.025-1.474-2.025
		C86.1,61.141,85.559,62.021,85.559,63.2z"/>
	<path stroke="#000000" stroke-width="0.5" stroke-miterlimit="10" d="M92.212,60.148v3.492c0,1.045,0.396,1.576,1.1,1.576
		c0.729,0,1.116-0.513,1.116-1.576v-3.492h1.369v3.402c0,1.866-0.945,2.764-2.53,2.764c-1.521,0-2.433-0.846-2.433-2.774v-3.391
		L92.212,60.148L92.212,60.148z"/>
	<path stroke="#000000" stroke-width="0.5" stroke-miterlimit="10" d="M98.154,61.303h-1.637v-1.151h4.664v1.151h-1.646v4.914
		h-1.384L98.154,61.303L98.154,61.303z"/>
</g>
<path fill="#2C3540" stroke="#231F20" stroke-width="2" stroke-miterlimit="10" d="M109.09,270.223c0,1.563-1.271,2.834-2.835,2.834
	h-91.33c-1.565,0-2.834-1.271-2.834-2.834V72.334c0-1.565,1.269-2.834,2.834-2.834h91.331c1.562,0,2.835,1.269,2.835,2.834
	l-0.001,101.832V270.223z"/>
<path fill="none" stroke="#505151" stroke-width="1.5" stroke-miterlimit="10" d="M57.318,167"/>
<path fill="none" stroke="#505151" stroke-width="1.5" stroke-miterlimit="10" d="M56.832,334.008"/>
<path fill="none" stroke="#505151" stroke-width="1.5" stroke-miterlimit="10" d="M92.339,167"/>
<rect x="7.924" y="307.548" fill="#E6E6E6" width="99.667" height="11.955"/>
<line fill="none" stroke="#505151" stroke-width="1.5" stroke-linecap="square" stroke-miterlimit="10" x1="59.832" y1="280.035" x2="27.812" y2="280.035"/>
<line fill="none" stroke="#505151" stroke-width="1.5" stroke-linecap="square" stroke-miterlimit="10" x1="81.842" y1="43.893" x2="59.832" y2="43.893"/>
<circle fill="#FFFFFF" stroke="#000000" stroke-width="10" stroke-miterlimit="10" cx="92.506" cy="43.605" r="9.395"/>
<g>
	<path stroke="#000000" stroke-width="1.5" stroke-miterlimit="10" d="M42.001,20.386c0.455-0.096,1.175-0.168,1.906-0.168
		c1.044,0,1.716,0.18,2.219,0.588c0.42,0.312,0.672,0.792,0.672,1.427c0,0.779-0.516,1.463-1.367,1.775v0.024
		c0.768,0.192,1.667,0.828,1.667,2.027c0,0.696-0.275,1.223-0.684,1.619c-0.563,0.516-1.475,0.755-2.794,0.755
		c-0.72,0-1.271-0.048-1.619-0.096V20.386z M43.044,23.696h0.947c1.104,0,1.751-0.576,1.751-1.355c0-0.948-0.719-1.319-1.774-1.319
		c-0.479,0-0.756,0.036-0.924,0.072V23.696z M43.044,27.57c0.204,0.036,0.504,0.048,0.876,0.048c1.079,0,2.074-0.396,2.074-1.571
		c0-1.103-0.947-1.559-2.087-1.559h-0.863V27.57z"/>
	<path stroke="#000000" stroke-width="1.5" stroke-miterlimit="10" d="M49.548,20.278v4.785c0,1.811,0.804,2.579,1.883,2.579
		c1.199,0,1.967-0.792,1.967-2.579v-4.785h1.056v4.713c0,2.482-1.308,3.502-3.059,3.502c-1.654,0-2.902-0.947-2.902-3.454v-4.761
		H49.548z"/>
	<path stroke="#000000" stroke-width="1.5" stroke-miterlimit="10" d="M56.269,20.278h4.354v0.875h-3.311v2.687h3.059v0.863h-3.059
		v3.658h-1.043V20.278z"/>
	<path stroke="#000000" stroke-width="1.5" stroke-miterlimit="10" d="M62.113,20.278h4.354v0.875h-3.31v2.687h3.058v0.863h-3.058
		v3.658h-1.044V20.278z"/>
	<path stroke="#000000" stroke-width="1.5" stroke-miterlimit="10" d="M72.142,24.572H69v2.915h3.502v0.875h-4.546v-8.083h4.366
		v0.875H69v2.555h3.142V24.572z"/>
	<path stroke="#000000" stroke-width="1.5" stroke-miterlimit="10" d="M73.861,20.386c0.528-0.108,1.283-0.168,2.003-0.168
		c1.115,0,1.835,0.204,2.339,0.66c0.408,0.36,0.636,0.912,0.636,1.535c0,1.067-0.672,1.775-1.523,2.063v0.036
		c0.624,0.216,0.995,0.792,1.188,1.631c0.264,1.127,0.456,1.907,0.624,2.219h-1.08c-0.132-0.228-0.312-0.923-0.539-1.931
		c-0.24-1.115-0.672-1.535-1.619-1.571h-0.983v3.502h-1.044V20.386z M74.905,24.068h1.067c1.115,0,1.822-0.612,1.822-1.535
		c0-1.043-0.755-1.5-1.858-1.511c-0.504,0-0.863,0.048-1.031,0.096V24.068z"/>
</g>
<g>
	<path fill="#231F20" stroke="#231F20" stroke-miterlimit="10" d="M-47.374,316.093c0.351,0.216,0.864,0.396,1.404,0.396
		c0.801,0,1.27-0.422,1.27-1.033c0-0.564-0.324-0.893-1.144-1.206c-0.99-0.353-1.604-0.864-1.604-1.722
		c0-0.943,0.784-1.646,1.963-1.646c0.621,0,1.071,0.146,1.343,0.298l-0.218,0.641c-0.196-0.108-0.604-0.289-1.15-0.289
		c-0.829,0-1.146,0.496-1.146,0.91c0,0.565,0.369,0.847,1.207,1.17c1.026,0.396,1.548,0.892,1.548,1.783
		c0,0.936-0.691,1.746-2.125,1.746c-0.585,0-1.225-0.173-1.549-0.389L-47.374,316.093z"/>
	<path fill="#231F20" stroke="#231F20" stroke-miterlimit="10" d="M-42.829,311.051c0.378-0.062,0.874-0.117,1.503-0.117
		c0.774,0,1.341,0.183,1.702,0.506c0.333,0.287,0.531,0.729,0.531,1.271c0,0.549-0.162,0.979-0.468,1.296
		c-0.414,0.439-1.091,0.666-1.854,0.666c-0.234,0-0.45-0.009-0.63-0.054v2.431h-0.783L-42.829,311.051L-42.829,311.051z
		 M-42.046,313.977c0.171,0.045,0.387,0.063,0.646,0.063c0.945,0,1.521-0.459,1.521-1.297c0-0.802-0.567-1.188-1.432-1.188
		c-0.344,0-0.604,0.026-0.738,0.062L-42.046,313.977L-42.046,313.977z"/>
	<path fill="#231F20" stroke="#231F20" stroke-miterlimit="10" d="M-34.899,314.202h-2.357v2.188h2.629v0.655h-3.413v-6.065h3.277
		v0.655h-2.494v1.919h2.357L-34.899,314.202L-34.899,314.202z"/>
	<path fill="#231F20" stroke="#231F20" stroke-miterlimit="10" d="M-30.47,314.202h-2.359v2.188h2.629v0.655h-3.412v-6.065h3.277
		v0.655h-2.494v1.919h2.359V314.202z"/>
	<path fill="#231F20" stroke="#231F20" stroke-miterlimit="10" d="M-29.185,311.061c0.477-0.07,1.044-0.127,1.666-0.127
		c1.125,0,1.927,0.262,2.456,0.758c0.54,0.494,0.855,1.197,0.855,2.18c0,0.988-0.306,1.801-0.873,2.357
		c-0.567,0.566-1.503,0.873-2.683,0.873c-0.56,0-1.026-0.025-1.422-0.072V311.061L-29.185,311.061z M-28.402,316.426
		c0.198,0.036,0.486,0.045,0.792,0.045c1.676,0,2.583-0.937,2.583-2.574c0.011-1.432-0.801-2.34-2.458-2.34
		c-0.403,0-0.711,0.034-0.918,0.08L-28.402,316.426L-28.402,316.426z"/>
</g>
<g>
	<path stroke="#000000" stroke-miterlimit="10" d="M25.054,311.073v6.067h-0.783v-6.067H25.054z"/>
	<path stroke="#000000" stroke-miterlimit="10" d="M26.422,317.141v-6.067h0.855l1.944,3.069c0.45,0.711,0.801,1.351,1.089,1.972
		l0.018-0.009c-0.072-0.811-0.09-1.549-0.09-2.494v-2.538h0.738v6.067h-0.792l-1.927-3.079c-0.423-0.675-0.828-1.368-1.134-2.025
		l-0.027,0.009c0.045,0.766,0.063,1.495,0.063,2.503v2.593H26.422z"/>
</g>
<g>
	<path stroke="#000000" stroke-miterlimit="10" d="M55.291,311.073h3.268v0.657h-2.485v2.017h2.296v0.647h-2.296v2.746h-0.783
		V311.073z"/>
	<path stroke="#000000" stroke-miterlimit="10" d="M61.581,311.154c0.342-0.072,0.882-0.127,1.432-0.127
		c0.783,0,1.287,0.136,1.665,0.441c0.315,0.234,0.504,0.595,0.504,1.071c0,0.585-0.387,1.099-1.026,1.333v0.018
		c0.576,0.145,1.252,0.621,1.252,1.521c0,0.522-0.207,0.918-0.514,1.216c-0.423,0.387-1.107,0.566-2.098,0.566
		c-0.54,0-0.954-0.036-1.215-0.071V311.154z M62.365,313.639h0.711c0.828,0,1.314-0.433,1.314-1.018c0-0.711-0.54-0.99-1.332-0.99
		c-0.36,0-0.567,0.027-0.693,0.054V313.639z M62.365,316.547c0.153,0.026,0.378,0.035,0.657,0.035c0.811,0,1.558-0.297,1.558-1.179
		c0-0.828-0.712-1.171-1.566-1.171h-0.648V316.547z"/>
</g>
<g>
	<path stroke="#000000" stroke-miterlimit="10" d="M78.304,311.073h0.783v5.41h2.593v0.657h-3.376V311.073z"/>
	<path stroke="#000000" stroke-miterlimit="10" d="M85.695,314.296h-2.359v2.188h2.629v0.657h-3.412v-6.067h3.277v0.657h-2.494
		v1.917h2.359V314.296z"/>
	<path stroke="#000000" stroke-miterlimit="10" d="M86.98,317.141v-6.067h0.855l1.944,3.069c0.45,0.711,0.802,1.351,1.09,1.972
		l0.018-0.009c-0.071-0.811-0.09-1.549-0.09-2.494v-2.538h0.738v6.067h-0.792l-1.927-3.079c-0.423-0.675-0.828-1.368-1.135-2.025
		l-0.026,0.009c0.045,0.766,0.062,1.495,0.062,2.503v2.593H86.98z"/>
	<path stroke="#000000" stroke-miterlimit="10" d="M97.521,316.87c-0.352,0.127-1.045,0.334-1.864,0.334
		c-0.918,0-1.674-0.234-2.269-0.802c-0.522-0.504-0.846-1.314-0.846-2.26c0.009-1.81,1.251-3.133,3.285-3.133
		c0.703,0,1.252,0.153,1.513,0.279l-0.188,0.639c-0.324-0.144-0.729-0.261-1.342-0.261c-1.477,0-2.439,0.918-2.439,2.439
		c0,1.54,0.927,2.449,2.341,2.449c0.513,0,0.864-0.072,1.044-0.162v-1.81h-1.233v-0.63h1.999V316.87z"/>
	<path stroke="#000000" stroke-miterlimit="10" d="M99.868,311.739h-1.846v-0.666h4.492v0.666h-1.854v5.401h-0.792V311.739z"/>
	<path stroke="#000000" stroke-miterlimit="10" d="M103.972,311.073v2.538h2.936v-2.538h0.792v6.067h-0.792v-2.845h-2.936v2.845
		h-0.783v-6.067H103.972z"/>
</g>
</svg>
