<?xml version="1.0" encoding="UTF-8" standalone="no"?>
<!-- Generator: Adobe Illustrator 25.2.3, SVG Export Plug-In . SVG Version: 6.00 Build 0)  -->

<svg
   version="1.0"
   id="svg111794"
   x="0px"
   y="0px"
   width="35.99997px"
   height="36px"
   viewBox="0 0 35.99997 36"
   enable-background="new 0 0 35.99997 36"
   xml:space="preserve"
   sodipodi:docname="cfBigKnob-bg.svg"
   inkscape:version="1.1.1 (c3084ef, 2021-09-22)"
   xmlns:inkscape="http://www.inkscape.org/namespaces/inkscape"
   xmlns:sodipodi="http://sodipodi.sourceforge.net/DTD/sodipodi-0.dtd"
   xmlns="http://www.w3.org/2000/svg"
   xmlns:svg="http://www.w3.org/2000/svg"><defs
   id="defs656"><linearGradient
   id="SVGID_2_-8"
   gradientUnits="userSpaceOnUse"
   x1="1518.0133"
   y1="1526.5659"
   x2="1548.5211"
   y2="1526.5659"
   gradientTransform="rotate(90,-1409.833,-1556.0001)"><stop
     offset="0.00559"
     style="stop-color:#4A4848"
     id="stop365" /><stop
     offset="1"
     style="stop-color:#1F1F1F"
     id="stop367" /></linearGradient><linearGradient
   id="SVGID_1_-0"
   gradientUnits="userSpaceOnUse"
   x1="-4492.3999"
   y1="4517.6201"
   x2="-4492.3999"
   y2="4552.5796"
   gradientTransform="translate(0,-3148)"><stop
     offset="0"
     style="stop-color:#D4D0D3"
     id="stop342" /><stop
     offset="1"
     style="stop-color:#4A4A4A"
     id="stop344" /></linearGradient>
	<linearGradient
   id="SVGID_1_"
   gradientUnits="userSpaceOnUse"
   x1="18.00001"
   y1="-0.01729"
   x2="18.00001"
   y2="36.01731">
		<stop
   offset="0"
   style="stop-color:#B0ACAE"
   id="stop627" />
		<stop
   offset="1"
   style="stop-color:#000000"
   id="stop629" />
	</linearGradient>
	
	
	
	
		<linearGradient
   id="SVGID_2_"
   gradientUnits="userSpaceOnUse"
   x1="5.48052"
   y1="-4113.20801"
   x2="34.95552"
   y2="-4113.20801"
   gradientTransform="rotate(90,-2046.495,-2048.713)">
		<stop
   offset="0"
   style="stop-color:#232223"
   id="stop638" />
		<stop
   offset="1"
   style="stop-color:#1F1E1F"
   id="stop640" />
	</linearGradient>
	
	
	
	
	
</defs>
<sodipodi:namedview
   bordercolor="#666666"
   borderopacity="1.0"
   fit-margin-bottom="0"
   fit-margin-left="0"
   fit-margin-right="0"
   fit-margin-top="0"
   id="base"
   inkscape:current-layer="svg111794"
   inkscape:cx="-3.4200907"
   inkscape:cy="0.48001273"
   inkscape:document-units="mm"
   inkscape:pageopacity="0.0"
   inkscape:pageshadow="2"
   inkscape:window-height="702"
   inkscape:window-maximized="0"
   inkscape:window-width="1280"
   inkscape:window-x="0"
   inkscape:window-y="23"
   inkscape:zoom="8.3331123"
   pagecolor="#ffffff"
   showgrid="false"
   inkscape:pagecheckerboard="0"
   showguides="false">
	</sodipodi:namedview>
<ellipse
   fill="url(#SVGID_1_)"
   cx="18.000011"
   cy="18.00001"
   rx="18"
   ry="18.0173"
   id="ellipse632"
   style="fill:url(#SVGID_1_)" /><path
   fill="#ffffff"
   d="M 17.99705,17.9962 13.33941,0.59696 C 11.82033,1.00438 10.36115,1.60938 8.99918,2.39647 7.63721,3.18356 6.38418,4.14597 5.27214,5.25908 Z"
   id="path634" /><path
   opacity="0.25"
   fill="#ffffff"
   d="m 18.00004,17.99998 4.03771,15.06896 c 1.31689,-0.35286 2.58186,-0.87682 3.76255,-1.5585 1.18069,-0.68168 2.26695,-1.51519 3.23098,-2.47922 z"
   id="path636" /><ellipse
   fill="url(#SVGID_2_)"
   cx="18.00001"
   cy="18.00001"
   rx="14.75164"
   ry="14.7375"
   id="ellipse643"
   style="fill:url(#SVGID_2_)" /><path
   opacity="0.5"
   d="m 17.99712,18.00001 12.76554,7.37727 c 1.29365,-2.24281 1.97484,-4.7875 1.97484,-7.37727 0,-2.58977 -0.6812,-5.13447 -1.97484,-7.37727 z"
   id="path645" /><path
   opacity="0.5"
   d="M 17.99714,18.00001 5.23159,10.62274 c -1.29365,2.24281 -1.97484,4.7875 -1.97484,7.37727 0,2.58977 0.6812,5.13447 1.97484,7.37727 z"
   id="path647" /><path
   opacity="0.1"
   fill="#ffffff"
   d="m 17.99705,17.99621 3.81368,14.23284 c 1.24382,-0.33328 2.4386,-0.82817 3.55378,-1.47202 1.11518,-0.64385 2.14116,-1.43111 3.0517,-2.34165 z"
   id="path649" /><path
   opacity="0.1"
   fill="#ffffff"
   d="M 17.99712,17.9963 14.17695,3.72551 C 12.93101,4.05968 11.73419,4.55589 10.61711,5.20146 9.50003,5.84703 8.4723,6.63639 7.56021,7.54936 Z"
   id="path651" />
<g
   id="g349"
   transform="translate(2198.0114,-681.20986)"><linearGradient
     id="linearGradient483"
     gradientUnits="userSpaceOnUse"
     x1="-4492.3999"
     y1="4517.6201"
     x2="-4492.3999"
     y2="4552.5796"
     gradientTransform="translate(0,-3148)"><stop
       offset="0"
       style="stop-color:#D4D0D3"
       id="stop479" /><stop
       offset="1"
       style="stop-color:#4A4A4A"
       id="stop481" /></linearGradient><circle
     fill="url(#SVGID_1_)"
     cx="-4492.3999"
     cy="1387.1"
     r="17.479919"
     id="circle347"
     style="fill:url(#SVGID_1_-0)" /></g><g
   opacity="0.26"
   id="g353"
   transform="translate(2198.0114,-681.20986)"><path
     fill="#4a4a4a"
     d="m -4492.3999,1369.8701 c 4.6021,0 8.9287,1.7923 12.1831,5.0465 3.2544,3.2543 5.0469,7.5811 5.0469,12.1834 0,4.6023 -1.7925,8.9291 -5.0469,12.1833 -3.2544,3.2543 -7.581,5.0465 -12.1831,5.0465 -4.6021,0 -8.9292,-1.7922 -12.1836,-5.0465 -6.7178,-6.7179 -6.7178,-17.6488 0,-24.3667 3.2544,-3.2542 7.5816,-5.0465 12.1836,-5.0465 m 0,-0.25 c -4.4736,0 -8.9468,1.7066 -12.3603,5.1198 -6.8262,6.8263 -6.8262,17.8939 0,24.7202 3.4135,3.4132 7.8867,5.1197 12.3603,5.1197 4.4731,0 8.9468,-1.7065 12.3599,-5.1197 6.8266,-6.8263 6.8266,-17.8939 0,-24.7202 -3.4131,-3.4132 -7.8868,-5.1198 -12.3599,-5.1198 z"
     id="path351" /></g><path
   opacity="0.13"
   fill="#ffffff"
   enable-background="new    "
   d="m -2294.493,705.88794 4.0791,15.2223 c 1.3301,-0.3565 2.6079,-0.8858 3.8008,-1.5744 1.1924,-0.6886 2.29,-1.5306 3.2637,-2.5044 z"
   id="path355" /><path
   opacity="0.13"
   fill="#ffffff"
   enable-background="new    "
   d="m -2294.5013,705.89254 -4.0786,-15.2223 c -1.3301,0.3565 -2.6079,0.8858 -3.8008,1.5744 -1.1929,0.6886 -2.29,1.5306 -3.2641,2.5044 z"
   id="path357" /><path
   opacity="0.31"
   fill="#ffffff"
   enable-background="new    "
   d="m -2294.4925,705.88764 4.5342,16.9209 c 1.4785,-0.3962 2.8989,-0.9846 4.2246,-1.7501 1.3262,-0.7654 2.5459,-1.7014 3.6284,-2.7838 z"
   id="path359" /><path
   opacity="0.78"
   fill="#ffffff"
   enable-background="new    "
   d="m -2294.5013,705.89284 -4.4419,-16.5767 c -1.4487,0.3882 -2.8403,0.9646 -4.1391,1.7145 -1.2989,0.7499 -2.4937,1.6667 -3.5542,2.7273 z"
   id="path361" /><circle
   fill="none"
   cx="-2294.3923"
   cy="705.89026"
   r="17.29248"
   id="circle363" /><g
   id="g442"
   transform="translate(2198.0114,-681.20986)"><linearGradient
     id="linearGradient498"
     gradientUnits="userSpaceOnUse"
     x1="1518.0133"
     y1="1526.5659"
     x2="1548.5211"
     y2="1526.5659"
     gradientTransform="rotate(90,-1409.833,-1556.0001)"><stop
       offset="0.00559"
       style="stop-color:#4A4848"
       id="stop494" /><stop
       offset="1"
       style="stop-color:#1F1F1F"
       id="stop496" /></linearGradient><circle
     fill="url(#SVGID_2_)"
     cx="-4492.3989"
     cy="1387.1001"
     r="15.25391"
     id="circle370"
     style="fill:url(#SVGID_2_-8)" /><g
     opacity="0.22"
     id="g424"><g
       id="g374"><path
         fill="#1a1a1a"
         d="m -4492.3979,1386.2307 c 0.4794,0 0.8691,0.39 0.8691,0.8694 0,0.4794 -0.3897,0.8694 -0.8691,0.8694 -0.4795,0 -0.8697,-0.39 -0.8697,-0.8694 0,-0.4794 0.3902,-0.8694 0.8697,-0.8694 m 0,-0.5 c -0.7564,0 -1.3697,0.6132 -1.3697,1.3694 0,0.7562 0.6133,1.3694 1.3697,1.3694 0.7563,0 1.3691,-0.6132 1.3691,-1.3694 0,-0.7562 -0.6128,-1.3694 -1.3691,-1.3694 z"
         id="path372" /></g><g
       id="g378"><path
         fill="#1a1a1a"
         d="m -4492.3979,1385.0636 c 1.1225,0 2.0361,0.9136 2.0361,2.0365 0,1.1229 -0.9136,2.0365 -2.0361,2.0365 -1.1231,0 -2.0367,-0.9136 -2.0367,-2.0365 0,-1.1229 0.9136,-2.0365 2.0367,-2.0365 m 0,-0.5 c -1.4009,0 -2.5367,1.1356 -2.5367,2.5365 0,1.4009 1.1358,2.5365 2.5367,2.5365 1.4008,0 2.5361,-1.1356 2.5361,-2.5365 0,-1.4009 -1.1353,-2.5365 -2.5361,-2.5365 z"
         id="path376" /></g><g
       id="g382"><path
         fill="#1a1a1a"
         d="m -4492.3979,1383.9946 c 1.7124,0 3.1054,1.3931 3.1054,3.1055 0,1.7124 -1.393,3.1055 -3.1054,3.1055 -1.7124,0 -3.1055,-1.3931 -3.1055,-3.1055 0,-1.7124 1.3931,-3.1055 3.1055,-3.1055 m 0,-0.5 c -1.9913,0 -3.6055,1.6143 -3.6055,3.6055 0,1.9912 1.6142,3.6055 3.6055,3.6055 1.9912,0 3.6054,-1.6143 3.6054,-3.6055 0,-1.9912 -1.6142,-3.6055 -3.6054,-3.6055 z"
         id="path380" /></g><g
       id="g386"><path
         fill="#1a1a1a"
         d="m -4492.3979,1382.8677 c 2.3339,0 4.2324,1.8987 4.2324,4.2324 0,2.3337 -1.8985,4.2324 -4.2324,4.2324 -2.334,0 -4.2325,-1.8987 -4.2325,-4.2324 0,-2.3337 1.8985,-4.2324 4.2325,-4.2324 m 0,-0.5 c -2.6138,0 -4.7325,2.1188 -4.7325,4.7324 0,2.6137 2.1187,4.7324 4.7325,4.7324 2.6132,0 4.7324,-2.1187 4.7324,-4.7324 0,-2.6136 -2.1192,-4.7324 -4.7324,-4.7324 z"
         id="path384" /></g><g
       id="g390"><path
         fill="#1a1a1a"
         d="m -4492.3979,1381.8029 c 2.9209,0 5.2968,2.3763 5.2968,5.2972 0,2.9209 -2.3759,5.2972 -5.2968,5.2972 -2.9209,0 -5.2974,-2.3763 -5.2974,-5.2972 0,-2.9209 2.3765,-5.2972 5.2974,-5.2972 m 0,-0.5 c -3.2017,0 -5.7974,2.5954 -5.7974,5.7972 0,3.2018 2.5957,5.7972 5.7974,5.7972 3.2016,0 5.7968,-2.5954 5.7968,-5.7972 0,-3.2018 -2.5952,-5.7972 -5.7968,-5.7972 z"
         id="path388" /></g><g
       id="g394"><path
         fill="#1a1a1a"
         d="m -4492.3979,1380.6935 c 3.5322,0 6.4062,2.874 6.4062,6.4066 0,3.5326 -2.874,6.4066 -6.4062,6.4066 -3.5328,0 -6.4068,-2.874 -6.4068,-6.4066 0,-3.5326 2.874,-6.4066 6.4068,-6.4066 m 0,-0.5 c -3.8145,0 -6.9068,3.0921 -6.9068,6.9066 0,3.8145 3.0923,6.9066 6.9068,6.9066 3.8144,0 6.9062,-3.0921 6.9062,-6.9066 0,-3.8145 -3.0918,-6.9066 -6.9062,-6.9066 z"
         id="path392" /></g><g
       id="g398"><path
         fill="#1a1a1a"
         d="m -4492.3979,1379.5491 c 4.1635,0 7.5507,3.3873 7.5507,7.551 0,4.1637 -3.3872,7.551 -7.5507,7.551 -4.1636,0 -7.5513,-3.3873 -7.5513,-7.551 0,-4.1637 3.3877,-7.551 7.5513,-7.551 m 0,-0.5 c -4.4468,0 -8.0513,3.6046 -8.0513,8.051 0,4.4464 3.6045,8.051 8.0513,8.051 4.4462,0 8.0507,-3.6046 8.0507,-8.051 0,-4.4464 -3.6045,-8.051 -8.0507,-8.051 z"
         id="path396" /></g><g
       id="g402"><path
         fill="#1a1a1a"
         d="m -4492.3979,1378.3243 c 4.8388,0 8.7753,3.9368 8.7753,8.7758 0,4.839 -3.9365,8.7758 -8.7753,8.7758 -4.8389,0 -8.7759,-3.9368 -8.7759,-8.7758 0,-4.839 3.937,-8.7758 8.7759,-8.7758 m 0,-0.5 c -5.1231,0 -9.2759,4.153 -9.2759,9.2758 0,5.1228 4.1528,9.2758 9.2759,9.2758 5.1225,0 9.2753,-4.153 9.2753,-9.2758 0,-5.1228 -4.1528,-9.2758 -9.2753,-9.2758 z"
         id="path400" /></g><g
       id="g406"><path
         fill="#1a1a1a"
         d="m -4492.3979,1377.1398 c 5.4917,0 9.9599,4.4681 9.9599,9.9603 0,5.4922 -4.4682,9.9603 -9.9599,9.9603 -5.4922,0 -9.9605,-4.4681 -9.9605,-9.9603 0,-5.4922 4.4683,-9.9603 9.9605,-9.9603 m 0,-0.5 c -5.7774,0 -10.4605,4.6832 -10.4605,10.4603 0,5.7771 4.6831,10.4603 10.4605,10.4603 5.7768,0 10.4599,-4.6832 10.4599,-10.4603 0,-5.7771 -4.6831,-10.4603 -10.4599,-10.4603 z"
         id="path404" /></g><g
       id="g410"><path
         fill="#1a1a1a"
         d="m -4492.3979,1375.955 c 6.1455,0 11.145,4.9996 11.145,11.1451 0,6.1455 -4.9995,11.1451 -11.145,11.1451 -6.1456,0 -11.1456,-4.9996 -11.1456,-11.1451 0,-6.1455 5,-11.1451 11.1456,-11.1451 m 0,-0.5 c -6.4317,0 -11.6456,5.2137 -11.6456,11.6451 0,6.4314 5.2139,11.6451 11.6456,11.6451 6.4311,0 11.645,-5.2137 11.645,-11.6451 0,-6.4314 -5.2139,-11.6451 -11.645,-11.6451 z"
         id="path408" /></g><g
       id="g414"><path
         fill="#1a1a1a"
         d="m -4492.3979,1374.7305 c 6.8208,0 12.3696,5.5489 12.3696,12.3696 0,6.8207 -5.5488,12.3698 -12.3696,12.3698 -6.8208,0 -12.3697,-5.5491 -12.3697,-12.3698 0,-6.8207 5.5489,-12.3696 12.3697,-12.3696 m 0,-0.5 c -7.108,0 -12.8697,5.7618 -12.8697,12.8696 0,7.1078 5.7617,12.8698 12.8697,12.8698 7.1074,0 12.8696,-5.762 12.8696,-12.8698 0,-7.1078 -5.7622,-12.8696 -12.8696,-12.8696 z"
         id="path412" /></g><g
       id="g418"><path
         fill="#1a1a1a"
         d="m -4492.3979,1373.4972 c 7.5009,0 13.603,6.1023 13.603,13.6029 0,7.5006 -6.1021,13.6029 -13.603,13.6029 -7.501,0 -13.6031,-6.1023 -13.6031,-13.6029 0,-7.5006 6.1021,-13.6029 13.6031,-13.6029 m 0,-0.5 c -7.7891,0 -14.1031,6.3141 -14.1031,14.1029 0,7.7888 6.314,14.1029 14.1031,14.1029 7.7885,0 14.103,-6.3141 14.103,-14.1029 0,-7.7888 -6.3145,-14.1029 -14.103,-14.1029 z"
         id="path416" /></g><g
       id="g422"><path
         fill="#1a1a1a"
         d="m -4492.3979,1372.2639 c 8.1806,0 14.8359,6.6555 14.8359,14.8362 0,8.1807 -6.6553,14.8362 -14.8359,14.8362 -8.1807,0 -14.8365,-6.6555 -14.8365,-14.8362 0,-8.1807 6.6558,-14.8362 14.8365,-14.8362 m 0,-0.5 c -8.4703,0 -15.3365,6.8662 -15.3365,15.3362 0,8.47 6.8662,15.3362 15.3365,15.3362 8.4697,0 15.3359,-6.8662 15.3359,-15.3362 0,-8.47 -6.8662,-15.3362 -15.3359,-15.3362 z"
         id="path420" /></g></g><path
     opacity="0.39"
     enable-background="new    "
     d="m -4492.3979,1387.1582 13.2812,7.6681 c 1.3462,-2.3312 2.0547,-4.9762 2.0547,-7.6681 0,-2.6919 -0.7085,-5.3369 -2.0547,-7.6681 z"
     id="path426" /><path
     opacity="0.39"
     enable-background="new    "
     d="m -4492.3979,1387.1582 -13.2818,-7.6681 c -1.3457,2.3312 -2.0547,4.9762 -2.0547,7.6681 0,2.6919 0.709,5.3369 2.0547,7.6681 z"
     id="path428" /><path
     opacity="0.13"
     fill="#ffffff"
     enable-background="new    "
     d="m -4492.5059,1387.0978 3.9693,14.8136 c 1.2949,-0.3468 2.5381,-0.862 3.6992,-1.532 1.1606,-0.6702 2.2285,-1.4896 3.1758,-2.4373 z"
     id="path430" /><g
     id="g438"><g
       id="g434"><circle
         fill="none"
         cx="-4492.5586"
         cy="1387.1001"
         r="16.828119"
         id="circle432" /></g><rect
       x="-4493.4434"
       y="1371.7639"
       opacity="0.99"
       fill="#ededed"
       enable-background="new    "
       width="1.77002"
       height="15.33618"
       id="rect436" /></g><path
     opacity="0.13"
     fill="#ffffff"
     enable-background="new    "
     d="m -4492.5137,1387.1024 -3.9692,-14.8136 c -1.2944,0.3468 -2.5381,0.862 -3.6987,1.5321 -1.1607,0.6701 -2.2286,1.4895 -3.1763,2.4372 z"
     id="path440" /></g><g
   id="g460"
   transform="translate(2198.0114,-681.20986)"><g
     id="g448"><path
       opacity="0.4"
       enable-background="new    "
       d="m 18.86291,0.02637 v 1.37952 c -0.2876,-0.01477 -0.57153,-0.04358 -0.86279,-0.04358 -0.29138,0 -0.57544,0.02881 -0.86316,0.0437 V 0.02637 C 7.59935,0.4801 -2e-5,8.34094 -2e-5,18 c 0,9.95068 8.05884,18.01733 18,18.01733 9.94116,0 18,-8.06665 18,-18.01733 0,-9.65906 -7.5996,-17.51978 -17.13707,-17.97363 z M 18.0001,2.36462 c 0.29126,0 0.57544,0.02795 0.86279,0.04358 v 0.89771 c 7.74304,0.44885 13.8888,6.8457 13.8888,14.69409 0,8.13928 -6.60461,14.73755 -14.75171,14.73755 C 9.85288,32.73755 3.24827,26.13928 3.24827,18 3.24827,10.15161 9.39378,3.75488 17.13694,3.30603 V 2.4082 C 17.42443,2.39258 17.70872,2.36462 18.0001,2.36462 Z"
       id="path444" /><path
       opacity="0.82"
       fill="#1e1d1e"
       enable-background="new    "
       d="m 18.00006,1.36231 c -9.17993,0 -16.6217,7.44897 -16.6217,16.6377 0,9.18873 7.44177,16.63757 16.6217,16.63757 9.17981,0 16.62158,-7.44885 16.62158,-16.63757 0,-9.18872 -7.44177,-16.6377 -16.62158,-16.6377 z m 0,32.27307 C 9.37311,33.63538 2.3797,26.63526 2.3797,18 c 0,-8.63526 6.99341,-15.63537 15.62036,-15.63537 8.62671,0 15.62024,7.00012 15.62024,15.63538 0,8.63526 -6.99353,15.63537 -15.62024,15.63537 z"
       id="path446" /></g><g
     id="g458"><path
       fill="#ededed"
       d="m 18.86293,3.30591 h -1.72592 v 14.17598 c 0,0.28613 0.23196,0.51809 0.51809,0.51809 h 0.68975 c 0.28613,0 0.51809,-0.23196 0.51809,-0.51809 z"
       id="path450" /><rect
       x="17.136999"
       y="-0.01733"
       opacity="0.71"
       fill="#ffffff"
       enable-background="new    "
       width="1.72592"
       height="1.37964"
       id="rect452" /><rect
       x="17.136999"
       y="1.3623101"
       fill="#d9d9d9"
       width="1.72592"
       height="1.00231"
       id="rect454" /><rect
       x="17.136999"
       y="2.36462"
       opacity="0.71"
       fill="#ffffff"
       enable-background="new    "
       width="1.72592"
       height="0.89788997"
       id="rect456" /></g></g><path
   opacity="0.4"
   enable-background="new    "
   d="m 18.91878,0.06733514 c -0.592025,-0.06361457 -1.175874,-0.02962958 -1.72595,0 C 7.6552201,0.52106514 0.05585014,8.3819051 0.05585014,18.040965 c 0,9.95068 8.05883996,18.01733 17.99999986,18.01733 9.94116,0 18,-8.06665 18,-18.01733 0,-9.6590599 -7.5996,-17.51977986 -17.13707,-17.97362986 z m -2e-5,3.27953996 c 7.74304,0.44885 13.8888,6.8456999 13.8888,14.6940899 0,8.13928 -6.60461,14.73755 -14.75171,14.73755 -8.1470999,0 -14.7517099,-6.59827 -14.7517099,-14.73755 0,-7.84839 6.14551,-14.2451199 13.8886699,-14.6939699 0.578046,-0.084384 1.189346,-0.035116 1.72595,-1.2e-4 z"
   id="path444-3"
   style="font-variation-settings:normal;opacity:0.4;vector-effect:none;fill:#000000;fill-opacity:1;stroke-width:1;stroke-linecap:butt;stroke-linejoin:miter;stroke-miterlimit:4;stroke-dasharray:none;stroke-dashoffset:0;stroke-opacity:1;-inkscape-stroke:none;stop-color:#000000;stop-opacity:1"
   sodipodi:nodetypes="ccsssccssscc" /><path
   opacity="0.82"
   fill="#1e1d1e"
   enable-background="new    "
   d="m 18.05593,1.4032751 c -9.1799299,0 -16.6216999,7.44897 -16.6216999,16.6376999 0,9.18873 7.44177,16.63757 16.6216999,16.63757 9.17981,0 16.62158,-7.44885 16.62158,-16.63757 0,-9.1887199 -7.44177,-16.6376999 -16.62158,-16.6376999 z m 0,32.2730699 c -8.6269499,0 -15.6203599,-7.00012 -15.6203599,-15.63538 0,-8.6352599 6.99341,-15.6353699 15.6203599,-15.6353699 8.62671,0 15.62024,7.00012 15.62024,15.6353799 0,8.63526 -6.99353,15.63537 -15.62024,15.63537 z"
   id="path446-9" /></svg>
