<?xml version="1.0" encoding="UTF-8" standalone="no"?>
<!-- Generator: Adobe Illustrator 25.2.3, SVG Export Plug-In . SVG Version: 6.00 Build 0)  -->

<svg
   version="1.0"
   id="svg111794"
   x="0px"
   y="0px"
   width="17.85552px"
   height="17.85938px"
   viewBox="0 0 17.85552 17.85938"
   enable-background="new 0 0 17.85552 17.85938"
   xml:space="preserve"
   sodipodi:docname="cfTrimpot-bg.svg"
   inkscape:version="1.1.1 (c3084ef, 2021-09-22)"
   xmlns:inkscape="http://www.inkscape.org/namespaces/inkscape"
   xmlns:sodipodi="http://sodipodi.sourceforge.net/DTD/sodipodi-0.dtd"
   xmlns="http://www.w3.org/2000/svg"
   xmlns:svg="http://www.w3.org/2000/svg"><defs
   id="defs187" /><sodipodi:namedview
   id="namedview185"
   pagecolor="#ffffff"
   bordercolor="#666666"
   borderopacity="1.0"
   inkscape:pageshadow="2"
   inkscape:pageopacity="0.0"
   inkscape:pagecheckerboard="0"
   showgrid="false"
   inkscape:zoom="48.400075"
   inkscape:cx="10.196265"
   inkscape:cy="4.5454475"
   inkscape:window-width="1280"
   inkscape:window-height="702"
   inkscape:window-x="0"
   inkscape:window-y="23"
   inkscape:window-maximized="0"
   inkscape:current-layer="svg111794" />
<circle
   fill="#0A0A0A"
   cx="8.92779"
   cy="8.92779"
   r="8.92779"
   id="circle164" />
<linearGradient
   id="SVGID_1_"
   gradientUnits="userSpaceOnUse"
   x1="-2317.63428"
   y1="-3827.85278"
   x2="-2301.4397"
   y2="-3827.85278"
   gradientTransform="matrix(0 1 -1 0 -3818.92505 2318.46484)">
	<stop
   offset="0"
   style="stop-color:#FFFBFD"
   id="stop166" />
	<stop
   offset="1"
   style="stop-color:#000000"
   id="stop168" />
</linearGradient>
<circle
   fill="url(#SVGID_1_)"
   cx="8.92779"
   cy="8.92779"
   r="8.09732"
   id="circle171" />
<linearGradient
   id="SVGID_2_"
   gradientUnits="userSpaceOnUse"
   x1="183.81821"
   y1="5065.83594"
   x2="200.01283"
   y2="5065.83594"
   gradientTransform="matrix(3.688038e-08 1 1 -3.688038e-08 -5056.9082 -182.98755)">
	<stop
   offset="0"
   style="stop-color:#FFFBFD"
   id="stop173" />
	<stop
   offset="1"
   style="stop-color:#2E2E2E"
   id="stop175" />
</linearGradient>
<circle
   fill="url(#SVGID_2_)"
   cx="8.92779"
   cy="8.92779"
   r="8.09732"
   id="circle178" />
<circle
   opacity="0.4"
   enable-background="new    "
   cx="8.92779"
   cy="8.92779"
   r="6.90539"
   id="circle180" />
<circle
   opacity="0.43"
   enable-background="new    "
   cx="8.92779"
   cy="8.92779"
   r="6.90539"
   id="circle182" />
<path
   opacity="0.4"
   d="M 9.9415306,0.90225531 V 2.1066053 c 3.3327604,0.49072 5.8935504,3.354 5.8935504,6.823 0,3.8138407 -3.09167,6.9055197 -6.9054004,6.9055197 -3.81373,0 -6.9054,-3.091669 -6.9054,-6.9055197 0,-3.4458 2.9908561,-7.4301819 7.923255,-6.81274 V 0.91251531 C 4.1685566,0.11876329 0.83240059,4.8243753 0.83240059,8.9296053 c 0,4.4721707 3.62524001,8.0974097 8.09729001,8.0974097 4.4720504,0 8.0972904,-3.625249 8.0972904,-8.0974097 0,-4.12842 -3.09204,-7.52832 -7.0854504,-8.02734999 z"
   id="path271"
   sodipodi:nodetypes="ccsssccsssc" /></svg>
