<?xml version="1.0" encoding="utf-8"?>
<!-- Generator: Adobe Illustrator 16.0.0, SVG Export Plug-In . SVG Version: 6.00 Build 0)  -->
<!DOCTYPE svg PUBLIC "-//W3C//DTD SVG 1.1//EN" "http://www.w3.org/Graphics/SVG/1.1/DTD/svg11.dtd">
<svg version="1.1"
	 id="svg4541" xmlns:sodipodi="http://sodipodi.sourceforge.net/DTD/sodipodi-0.dtd" xmlns:inkscape="http://www.inkscape.org/namespaces/inkscape" xmlns:dc="http://purl.org/dc/elements/1.1/" xmlns:cc="http://creativecommons.org/ns#" xmlns:rdf="http://www.w3.org/1999/02/22-rdf-syntax-ns#" xmlns:svg="http://www.w3.org/2000/svg" inkscape:version="0.92.2 5c3e80d, 2017-08-06" sodipodi:docname="VCF.svg"
	 xmlns="http://www.w3.org/2000/svg" xmlns:xlink="http://www.w3.org/1999/xlink" x="0px" y="0px" width="120.18px" height="380px"
	 viewBox="0 0 120.18 380" enable-background="new 0 0 120.18 380" xml:space="preserve">
<g>
	<path fill="#E6E6E6" d="M-7.693,0.065l135.566-0.042v379.911l-135.566,0.043V0.065z"/>
</g>
<line fill="none" stroke="#505151" stroke-width="1.5" stroke-miterlimit="10" x1="69.84" y1="334.008" x2="81.34" y2="334.008"/>
<sodipodi:namedview  id="base" pagecolor="#ffffff" bordercolor="#666666" borderopacity="1.0" inkscape:zoom="1.979899" inkscape:cx="-12.284485" inkscape:cy="138.75941" showgrid="false" fit-margin-top="0" fit-margin-left="0" fit-margin-right="0" inkscape:pageopacity="0.0" inkscape:document-units="mm" inkscape:pageshadow="2" inkscape:current-layer="g13178" inkscape:window-x="0" inkscape:window-height="1422" inkscape:window-y="18" fit-margin-bottom="0" inkscape:window-width="2560" inkscape:window-maximized="0" units="px">
	</sodipodi:namedview>
<g>
	<path stroke="#231F20" stroke-width="0.25" stroke-miterlimit="10" d="M60.129,366.671c-0.378,0.168-1.092,0.31-1.899,0.31
		c-2.22,0-3.635-1.347-3.635-3.502c0-2.004,1.373-3.644,3.929-3.644c0.562,0,1.182,0.101,1.625,0.269l-0.336,1.582
		c-0.259-0.104-0.637-0.211-1.188-0.211c-1.12,0-1.854,0.799-1.835,1.92c0,1.26,0.841,1.92,1.877,1.92
		c0.505,0,0.896-0.086,1.22-0.211L60.129,366.671z"/>
	<path stroke="#231F20" stroke-width="0.25" stroke-miterlimit="10" d="M62.045,361.066h1.271l0.042-0.447
		c0.105-0.938,0.636-3.039,3.04-3.039c0.479,0,0.911,0.098,1.163,0.225l-0.336,1.514c-0.169-0.062-0.396-0.127-0.659-0.127
		c-0.695,0-1.031,0.51-1.115,1.271l-0.089,0.604h1.435v1.482H65.19l-0.312,2.493c-0.211,1.709-0.785,3.063-2.771,3.063
		c-0.571-0.019-1.062-0.125-1.271-0.234l0.294-1.48c0.21,0.084,0.438,0.108,0.659,0.108c0.695-0.019,0.938-0.396,1.14-1.985
		l0.229-1.965H62.05v-1.482H62.045L62.045,361.066z"/>
</g>
<path fill="none" stroke="#6C6C6D" stroke-miterlimit="10" d="M84.956,272.529"/>
<path fill="none" stroke="#6C6C6D" stroke-miterlimit="10" d="M51.257,262.523"/>
<path fill="none" stroke="#6C6C6D" stroke-miterlimit="10" d="M51.257,282.539"/>
<path fill="none" stroke="#6C6C6D" stroke-miterlimit="10" d="M38.465,282.539"/>
<path fill="none" stroke="#6C6C6D" stroke-miterlimit="10" d="M84.956,327.561"/>
<path fill="none" stroke="#6C6C6D" stroke-miterlimit="10" d="M57.261,322.559"/>
<path fill="none" stroke="#6C6C6D" stroke-miterlimit="10" d="M84.956,297.542"/>
<path fill="none" stroke="#6C6C6D" stroke-miterlimit="10" d="M51.257,292.541"/>
<path fill="none" stroke="#303232" stroke-miterlimit="10" d="M60.833,312.561"/>
<path fill="none" stroke="#303232" stroke-miterlimit="10" d="M44.469,312.561"/>
<path fill="none" stroke="#303232" stroke-miterlimit="10" d="M84.956,282.535"/>
<path fill="none" stroke="#303232" stroke-miterlimit="10" d="M60.833,272.529"/>
<path fill="none" stroke="#303232" stroke-miterlimit="10" d="M84.956,337.564"/>
<path fill="none" stroke="#303232" stroke-miterlimit="10" d="M60.833,332.564"/>
<path fill="none" stroke="#303232" stroke-miterlimit="10" d="M85.957,307.548"/>
<path fill="none" stroke="#303232" stroke-miterlimit="10" d="M61.195,302.547"/>
<g id="g13122_4_" transform="matrix(0.27602379,0,0,0.27602379,354.09618,57.736346)">
	<g id="g13178_4_" transform="translate(-167.07644,-20.557569)">
		<g id="g13224_4_" transform="translate(-99.2314,6.0949065)">
			<g id="path30351_4_">
				<path inkscape:connector-curvature="0" fill="#212121" d="M-629.187,933.123c0-5.891-4.826-10.706-10.713-10.706h-82.3
					c-5.891,0-10.717,4.822-10.717,10.706v121.596c0,5.884,4.826,10.713,10.717,10.713h82.3c5.887,0,10.713-4.829,10.713-10.713"/>
			</g>
		</g>
	</g>
</g>
<path fill="none" stroke="#6C6C6D" stroke-miterlimit="10" d="M51.089,262.523"/>
<path fill="none" stroke="#6C6C6D" stroke-miterlimit="10" d="M57.093,322.559"/>
<path fill="none" stroke="#303232" stroke-miterlimit="10" d="M61.095,272.529"/>
<path fill="none" stroke="#303232" stroke-miterlimit="10" d="M61.095,332.564"/>
<g>
	<path fill="#231F20" stroke="#231F20" stroke-width="1.5" stroke-miterlimit="10" d="M53.085,28.098
		c-0.384,0.192-1.151,0.384-2.135,0.384c-2.279,0-3.994-1.439-3.994-4.09c0-2.531,1.715-4.246,4.222-4.246
		c1.007,0,1.643,0.216,1.919,0.36l-0.252,0.851c-0.396-0.191-0.959-0.335-1.631-0.335c-1.896,0-3.154,1.211-3.154,3.334
		c0,1.979,1.142,3.25,3.106,3.25c0.635,0,1.283-0.132,1.703-0.336L53.085,28.098z"/>
	<path fill="#231F20" stroke="#231F20" stroke-width="1.5" stroke-miterlimit="10" d="M55.44,20.278v4.785
		c0,1.811,0.806,2.579,1.886,2.579c1.196,0,1.967-0.792,1.967-2.579v-4.785h1.056v4.713c0,2.482-1.308,3.502-3.059,3.502
		c-1.655,0-2.902-0.947-2.902-3.454v-4.761H55.44z"/>
	<path fill="#231F20" stroke="#231F20" stroke-width="1.5" stroke-miterlimit="10" d="M62.159,20.386
		c0.456-0.096,1.175-0.168,1.904-0.168c1.043,0,1.715,0.18,2.222,0.588c0.419,0.312,0.671,0.792,0.671,1.427
		c0,0.779-0.519,1.463-1.367,1.775v0.024c0.768,0.192,1.667,0.828,1.667,2.027c0,0.696-0.275,1.223-0.687,1.619
		c-0.562,0.516-1.475,0.755-2.794,0.755c-0.72,0-1.271-0.048-1.616-0.096V20.386L62.159,20.386z M63.202,23.696h0.945
		c1.104,0,1.751-0.576,1.751-1.355c0-0.948-0.72-1.319-1.772-1.319c-0.479,0-0.756,0.036-0.924,0.072V23.696z M63.202,27.57
		c0.204,0.036,0.504,0.048,0.876,0.048c1.079,0,2.072-0.396,2.072-1.571c0-1.103-0.945-1.559-2.087-1.559h-0.861V27.57z"/>
	<path fill="#231F20" stroke="#231F20" stroke-width="1.5" stroke-miterlimit="10" d="M72.85,24.572h-3.143v2.915h3.502v0.875
		h-4.546v-8.083h4.363v0.875h-3.319v2.555h3.143V24.572z"/>
</g>
<g>
	<path fill="#FFFFFF" stroke="#FFFFFF" stroke-width="0.5" stroke-miterlimit="10" d="M89.946,314.271
		c0,1.988-1.203,3.193-2.979,3.193c-1.8,0-2.854-1.355-2.854-3.088c0-1.816,1.153-3.186,2.946-3.186
		C88.927,311.204,89.946,312.6,89.946,314.271z M85.559,314.354c0,1.188,0.562,2.023,1.479,2.023c0.928,0,1.459-0.883,1.459-2.061
		c0-1.092-0.521-2.025-1.471-2.025C86.1,312.294,85.559,313.175,85.559,314.354z"/>
	<path fill="#FFFFFF" stroke="#FFFFFF" stroke-width="0.5" stroke-miterlimit="10" d="M92.212,311.302v3.492
		c0,1.045,0.396,1.576,1.1,1.576c0.729,0,1.116-0.513,1.116-1.576v-3.492h1.369v3.402c0,1.866-0.945,2.764-2.53,2.764
		c-1.523,0-2.433-0.846-2.433-2.774v-3.391L92.212,311.302L92.212,311.302z"/>
	<path fill="#FFFFFF" stroke="#FFFFFF" stroke-width="0.5" stroke-miterlimit="10" d="M98.154,312.456h-1.637v-1.151h4.664v1.151
		h-1.646v4.914h-1.381V312.456z"/>
</g>
<g>
	<path stroke="#000000" stroke-width="0.5" stroke-miterlimit="10" d="M46.889,311.348v6.068h-1.375v-6.068H46.889z"/>
	<path stroke="#000000" stroke-width="0.5" stroke-miterlimit="10" d="M48.076,317.418v-6.064h1.604l1.266,2.229
		c0.354,0.646,0.721,1.396,0.984,2.077h0.024c-0.091-0.806-0.114-1.618-0.114-2.522v-1.771h1.259v6.062h-1.438l-1.297-2.353
		c-0.356-0.646-0.756-1.433-1.059-2.146l-0.021,0.008c0.036,0.804,0.058,1.653,0.058,2.646v1.826h-1.267V317.418L48.076,317.418z"/>
</g>
<line fill="none" stroke="#505151" stroke-width="1.5" stroke-miterlimit="10" x1="39.82" y1="334.008" x2="48.59" y2="334.008"/>
<g>
	<path stroke="#000000" stroke-miterlimit="10" d="M35.458,316.818c-0.256,0.128-0.768,0.256-1.423,0.256
		c-1.519,0-2.663-0.96-2.663-2.727c0-1.688,1.144-2.83,2.814-2.83c0.672,0,1.096,0.144,1.279,0.239l-0.167,0.567
		c-0.264-0.127-0.64-0.224-1.087-0.224c-1.264,0-2.103,0.808-2.103,2.223c0,1.319,0.76,2.167,2.071,2.167
		c0.424,0,0.855-0.088,1.135-0.224L35.458,316.818z"/>
	<path stroke="#000000" stroke-miterlimit="10" d="M37.611,316.994l-1.759-5.389h0.751l0.839,2.654
		c0.232,0.728,0.432,1.383,0.576,2.015h0.016c0.152-0.624,0.376-1.303,0.616-2.007l0.912-2.662h0.743l-1.927,5.389H37.611z"/>
</g>
<path fill="#2C3540" stroke="#231F20" stroke-width="2" stroke-miterlimit="10" d="M109.09,174.166c0,1.565-1.27,2.834-2.835,2.834
	H14.925c-1.565,0-2.834-1.269-2.834-2.834V72.334c0-1.565,1.269-2.834,2.834-2.834h91.331c1.565,0,2.835,1.269,2.835,2.834V174.166z
	"/>
</svg>
