<?xml version="1.0" encoding="utf-8"?>
<!-- Generator: Adobe Illustrator 16.0.0, SVG Export Plug-In . SVG Version: 6.00 Build 0)  -->
<!DOCTYPE svg PUBLIC "-//W3C//DTD SVG 1.1//EN" "http://www.w3.org/Graphics/SVG/1.1/DTD/svg11.dtd">
<svg version="1.1"
	 id="svg4541" inkscape:version="0.92.2 5c3e80d, 2017-08-06" sodipodi:docname="VCA.svg" xmlns:dc="http://purl.org/dc/elements/1.1/" xmlns:cc="http://creativecommons.org/ns#" xmlns:rdf="http://www.w3.org/1999/02/22-rdf-syntax-ns#" xmlns:svg="http://www.w3.org/2000/svg" xmlns:sodipodi="http://sodipodi.sourceforge.net/DTD/sodipodi-0.dtd" xmlns:inkscape="http://www.inkscape.org/namespaces/inkscape"
	 xmlns="http://www.w3.org/2000/svg" xmlns:xlink="http://www.w3.org/1999/xlink" x="0px" y="0px" width="90.135px" height="380px"
	 viewBox="0 0 90.135 380" enable-background="new 0 0 90.135 380" xml:space="preserve">
<path id="path33453" fill="#E6E6E6" stroke="#595A5A" stroke-miterlimit="10" d="M0,0h90.135v379.912H0V0z"/>
<sodipodi:namedview  units="px" fit-margin-right="0" inkscape:pageopacity="0.0" inkscape:document-units="mm" inkscape:pageshadow="2" inkscape:window-y="18" inkscape:window-x="0" fit-margin-bottom="0" inkscape:window-height="1422" inkscape:window-maximized="0" inkscape:current-layer="g13224" inkscape:window-width="2560" id="base" pagecolor="#ffffff" bordercolor="#666666" borderopacity="1.0" inkscape:zoom="0.49497475" inkscape:cx="-640.37084" inkscape:cy="-87.479401" showgrid="false" fit-margin-top="0" fit-margin-left="0">
	</sodipodi:namedview>
<g>
	<path stroke="#231F20" stroke-width="0.25" stroke-miterlimit="10" d="M44.021,367.67c-0.378,0.168-1.092,0.309-1.905,0.309
		c-2.213,0-3.628-1.346-3.628-3.502c0-2.004,1.373-3.643,3.922-3.643c0.561,0,1.177,0.1,1.625,0.268l-0.336,1.582
		c-0.252-0.104-0.63-0.211-1.19-0.211c-1.121,0-1.849,0.799-1.835,1.92c0,1.26,0.84,1.92,1.877,1.92
		c0.504,0,0.896-0.086,1.219-0.211L44.021,367.67z"/>
	<path stroke="#231F20" stroke-width="0.25" stroke-miterlimit="10" d="M45.937,362.066h1.274l0.042-0.448
		c0.111-0.938,0.63-3.039,3.039-3.039c0.477,0,0.911,0.098,1.163,0.224l-0.336,1.514c-0.169-0.062-0.394-0.127-0.659-0.127
		c-0.7,0-1.036,0.506-1.12,1.271l-0.084,0.605h1.429v1.479H49.08l-0.312,2.493c-0.211,1.709-0.785,3.062-2.771,3.062
		c-0.575-0.015-1.065-0.125-1.275-0.229l0.294-1.479c0.21,0.084,0.434,0.104,0.659,0.104c0.7-0.021,0.938-0.396,1.139-1.981
		l0.229-1.969H45.94v-1.479H45.937L45.937,362.066L45.937,362.066z"/>
</g>
<rect x="3.867" y="38.503" stroke="#FFFFFF" stroke-miterlimit="10" width="81.399" height="310.003"/>
<g>
	<path stroke="#231F20" stroke-width="0.75" stroke-miterlimit="10" d="M32.173,17.912h1.835v6.548h3.214v1.535h-5.049V17.912z"/>
	<path stroke="#231F20" stroke-width="0.75" stroke-miterlimit="10" d="M43.115,22.578H40.14v1.919h3.322v1.499h-5.157v-8.083h4.989
		v1.499H40.14v1.679h2.975V22.578z"/>
	<path stroke="#231F20" stroke-width="0.75" stroke-miterlimit="10" d="M44.713,18.02c0.672-0.108,1.547-0.168,2.471-0.168
		c1.535,0,2.53,0.276,3.31,0.864c0.84,0.624,1.367,1.619,1.367,3.046c0,1.547-0.563,2.615-1.343,3.274
		c-0.852,0.708-2.146,1.043-3.73,1.043c-0.947,0-1.619-0.06-2.075-0.12V18.02z M46.548,24.616c0.156,0.036,0.408,0.036,0.637,0.036
		c1.654,0.012,2.734-0.899,2.734-2.831c0.012-1.679-0.972-2.566-2.543-2.566c-0.408,0-0.672,0.036-0.828,0.072V24.616z"/>
	<path stroke="#231F20" stroke-width="0.75" stroke-miterlimit="10" d="M53.125,24.113c0.491,0.252,1.247,0.503,2.026,0.503
		c0.84,0,1.283-0.348,1.283-0.875c0-0.503-0.383-0.792-1.354-1.139c-1.343-0.468-2.219-1.211-2.219-2.387
		c0-1.379,1.151-2.435,3.058-2.435c0.912,0,1.584,0.192,2.063,0.408l-0.407,1.475c-0.324-0.156-0.9-0.384-1.691-0.384
		c-0.792,0-1.176,0.36-1.176,0.78c0,0.516,0.456,0.743,1.499,1.139c1.427,0.528,2.099,1.271,2.099,2.411
		c0,1.355-1.043,2.507-3.262,2.507c-0.924,0-1.835-0.24-2.291-0.492L53.125,24.113z"/>
</g>
</svg>
