<?xml version="1.0" encoding="UTF-8" standalone="no"?>
<!-- Generator: Adobe Illustrator 16.0.0, SVG Export Plug-In . SVG Version: 6.00 Build 0)  -->

<svg
   version="1.1"
   id="svg12553"
   inkscape:version="1.1.1 (c3084ef, 2021-09-22)"
   sodipodi:docname="plusButton.svg"
   x="0px"
   y="0px"
   width="19.415px"
   height="17.334px"
   viewBox="0 0 19.415 17.334"
   enable-background="new 0 0 19.415 17.334"
   xml:space="preserve"
   xmlns:inkscape="http://www.inkscape.org/namespaces/inkscape"
   xmlns:sodipodi="http://sodipodi.sourceforge.net/DTD/sodipodi-0.dtd"
   xmlns="http://www.w3.org/2000/svg"
   xmlns:svg="http://www.w3.org/2000/svg"><defs
   id="defs227" />
<path
   fill="#e6e6e6"
   d="M 16.579,-0.00300026 H 2.834 C 1.269,-0.00300026 0,1.2659997 0,2.8309997 V 14.498 c 0,1.565 1.269,2.836 2.834,2.836 h 13.745 c 1.565,0 2.836,-1.271 2.836,-2.836 V 2.8309997 c 0,-1.566 -1.271,-2.83399996 -2.836,-2.83399996 z"
   id="path216"
   sodipodi:nodetypes="sssssssss" />
<sodipodi:namedview
   units="px"
   fit-margin-left="0"
   fit-margin-top="0"
   inkscape:cx="38.038793"
   inkscape:zoom="4.64"
   borderopacity="1.0"
   inkscape:cy="-4.0948276"
   id="base"
   pagecolor="#ffffff"
   showgrid="true"
   bordercolor="#666666"
   inkscape:window-height="800"
   inkscape:window-maximized="0"
   inkscape:pageshadow="2"
   inkscape:window-y="0"
   inkscape:window-width="1280"
   inkscape:window-x="0"
   fit-margin-bottom="0"
   inkscape:document-units="mm"
   inkscape:pageopacity="0.0"
   fit-margin-right="0"
   inkscape:current-layer="svg12553"
   inkscape:pagecheckerboard="0">
	<inkscape:grid
   type="xygrid"
   originx="-20.372917"
   originy="84.666661"
   id="grid12870" />
</sodipodi:namedview>
<g
   id="g222">
	<path
   d="m 16.581,1 c 1.012,0 1.834,0.822 1.834,1.834 V 14.5 c 0,1.013 -0.822,1.835 -1.834,1.835 H 2.834 C 1.823,16.334 1,15.511 1,14.499 V 2.833 C 1,1.822 1.823,1 2.834,1 h 13.747 m 0,-1 H 2.834 C 1.269,0 0,1.268 0,2.833 v 11.666 c 0,1.564 1.269,2.835 2.834,2.835 h 13.747 c 1.564,0 2.834,-1.271 2.834,-2.835 V 2.833 C 19.415,1.268 18.145,0 16.581,0 Z"
   id="path220" />
</g>
<rect
   x="-20.316"
   y="3.29"
   fill="none"
   width="19.315"
   height="9.689"
   id="rect224" />
<rect
   style="opacity:0"
   id="rect331"
   width="10"
   height="10"
   x="4.6270828"
   y="-15.333338" /><rect
   style="opacity:0;fill:#e6e6e6;fill-opacity:1"
   id="rect333"
   width="40"
   height="30"
   x="34.627083"
   y="-25.333338" /><rect
   style="opacity:0;fill:#000000;fill-opacity:1"
   id="rect19146"
   width="25"
   height="40"
   x="-40.372917"
   y="-30.333338" /><rect
   style="opacity:0;fill:#e6e6e6;fill-opacity:1;stroke-width:1.73205"
   id="rect19192"
   width="15"
   height="15"
   x="-35.372917"
   y="-10.333338" /><path
   style="opacity:0;fill:#e6e6e6;fill-opacity:1;stroke-width:0.215517"
   d="M 8.2533815,-8.674569 8.1896555,-10.12931 6.8426727,-10.19347 5.49569,-10.25763 v -1.164777 -1.164777 l 1.3469827,-0.06416 1.3469828,-0.06416 0.064163,-1.346983 0.064163,-1.346983 h 1.2828194 1.2828201 v 1.400862 1.400862 h 1.293103 1.293104 v 1.185345 1.185345 h -1.293104 -1.293103 v 1.5086207 1.5086207 H 9.6003642 8.3171078 Z"
   id="path21764" /><path
   style="opacity:0;fill:#e6e6e6;fill-opacity:1;stroke-width:0.215517"
   d="m 13.538809,-11.314655 c 0,-0.770474 0.03911,-1.085668 0.08692,-0.700431 0.04781,0.385237 0.04781,1.015625 0,1.400862 -0.04781,0.385237 -0.08692,0.07004 -0.08692,-0.700431 z"
   id="path21803" /><path
   style="opacity:0;fill:#e6e6e6;fill-opacity:1;stroke-width:0.215517"
   d="M 8.2533815,-8.674569 8.1896555,-10.12931 6.8426727,-10.19347 5.49569,-10.25763 v -1.164777 -1.164777 l 1.3469827,-0.06416 1.3469828,-0.06416 0.064163,-1.346983 0.064163,-1.346983 h 1.2828194 1.2828201 v 1.400862 1.400862 h 1.293103 1.293104 v 1.185345 1.185345 h -1.293104 -1.293103 v 1.5086207 1.5086207 H 9.6003642 8.3171078 Z"
   id="path21842" /><path
   style="opacity:0;fill:#e6e6e6;fill-opacity:1;stroke-width:0.215517"
   d="M 8.2533815,-8.674569 8.1896555,-10.12931 6.8426727,-10.19347 5.49569,-10.25763 v -1.164777 -1.164777 l 1.3469827,-0.06416 1.3469828,-0.06416 0.064163,-1.346983 0.064163,-1.346983 h 1.2828194 1.2828201 v 1.400862 1.400862 h 1.293103 1.293104 v 1.185345 1.185345 h -1.293104 -1.293103 v 1.5086207 1.5086207 H 9.6003642 8.3171078 Z"
   id="path21881" /><path
   style="opacity:0;fill:#e6e6e6;fill-opacity:1;stroke-width:0.215517"
   d="M 8.2533815,-8.674569 8.1896555,-10.12931 6.8426727,-10.19347 5.49569,-10.25763 v -1.164777 -1.164777 l 1.3469827,-0.06416 1.3469828,-0.06416 0.064163,-1.346983 0.064163,-1.346983 h 1.2828194 1.2828201 v 1.400862 1.400862 h 1.293103 1.293104 v 1.185345 1.185345 h -1.293104 -1.293103 v 1.5086207 1.5086207 H 9.6003642 8.3171078 Z"
   id="path21920" /><path
   style="opacity:0;fill:#e6e6e6;fill-opacity:1;stroke-width:0.215517"
   d="M 2.1551724,16.027157 C 1.195165,15.492118 1.1853448,15.417086 1.1853448,8.6170655 V 2.1225492 L 1.684149,1.653947 C 2.1766747,1.1912431 2.2779289,1.1853448 9.7284778,1.1853448 h 7.5455252 l 0.468602,0.4988042 c 0.45968,0.4893072 0.468602,0.6222106 0.468602,6.9804344 0,6.0594476 -0.02682,6.5147706 -0.411788,6.9904196 l -0.411788,0.50879 -7.400712,0.0518 c -5.1303097,0.03591 -7.5329456,-0.0219 -7.8317466,-0.188432 z"
   id="path21959" /><path
   style="opacity:0;fill:#e6e6e6;fill-opacity:1;stroke-width:0.215517"
   d="M 2.1551724,16.027157 C 1.195165,15.492118 1.1853448,15.417086 1.1853448,8.6170655 V 2.1225492 L 1.684149,1.653947 C 2.1766747,1.1912431 2.2779289,1.1853448 9.7284778,1.1853448 h 7.5455252 l 0.468602,0.4988042 c 0.45968,0.4893072 0.468602,0.6222106 0.468602,6.9804344 0,6.0594476 -0.02682,6.5147706 -0.411788,6.9904196 l -0.411788,0.50879 -7.400712,0.0518 c -5.1303097,0.03591 -7.5329456,-0.0219 -7.8317466,-0.188432 z"
   id="path21998" /><path
   style="opacity:0;fill:#e6e6e6;fill-opacity:1;stroke-width:0.215517"
   d="M 2.1641554,-2.8459987 C 1.9320272,-2.9078086 1.5066189,-3.1126763 1.2188037,-3.3012599 0.18757181,-3.9769491 0.10769759,-4.5645894 0.10856425,-11.469371 c 7.6032e-4,-6.057691 0.0252596,-6.458669 0.43575355,-7.13196 0.7821873,-1.282941 1.1326507,-1.334014 9.1539581,-1.334014 8.0213071,0 8.3717711,0.05107 9.1539581,1.334014 0.410934,0.674012 0.434992,1.073933 0.435753,7.243499 8.77e-4,7.1088279 -0.03363,7.3378467 -1.227403,8.1469484 -0.561436,0.3805226 -1.124082,0.4115429 -8.039032,0.4432131 -4.0894399,0.01873 -7.6252682,-0.016518 -7.8573966,-0.078328 z M 10.883621,-8.512931 v -1.508621 h 1.400862 1.400862 v -1.400862 -1.400862 H 12.284483 10.883621 V -14.224138 -15.625 H 9.4827586 8.0818966 v 1.400862 1.400862 H 6.6810345 5.2801724 v 1.400862 1.400862 h 1.4008621 1.4008621 v 1.508621 1.5086207 h 1.400862 1.4008624 z"
   id="path22037" /><path
   style="opacity:0;fill:#e6e6e6;fill-opacity:1;stroke-width:0.215517"
   d="M 2.1551724,16.027157 C 1.195165,15.492118 1.1853448,15.417086 1.1853448,8.6170655 V 2.1225492 L 1.684149,1.653947 C 2.1766747,1.1912431 2.2779289,1.1853448 9.7284778,1.1853448 h 7.5455252 l 0.468602,0.4988042 c 0.45968,0.4893072 0.468602,0.6222106 0.468602,6.9804344 0,6.0594476 -0.02682,6.5147706 -0.411788,6.9904196 l -0.411788,0.50879 -7.400712,0.0518 c -5.1303097,0.03591 -7.5329456,-0.0219 -7.8317466,-0.188432 z"
   id="path22076" /><path
   style="opacity:0;fill:#e6e6e6;fill-opacity:1;stroke-width:0.215517"
   d="M 2.1551724,16.027157 C 1.195165,15.492118 1.1853448,15.417086 1.1853448,8.6170655 V 2.1225492 L 1.684149,1.653947 C 2.1766747,1.1912431 2.2779289,1.1853448 9.7284778,1.1853448 h 7.5455252 l 0.468602,0.4988042 c 0.45968,0.4893072 0.468602,0.6222106 0.468602,6.9804344 0,6.0594476 -0.02682,6.5147706 -0.411788,6.9904196 l -0.411788,0.50879 -7.400712,0.0518 c -5.1303097,0.03591 -7.5329456,-0.0219 -7.8317466,-0.188432 z"
   id="path24141" /></svg>
