<?xml version="1.0" encoding="utf-8"?>
<!-- Generator: Adobe Illustrator 16.0.0, SVG Export Plug-In . SVG Version: 6.00 Build 0)  -->
<!DOCTYPE svg PUBLIC "-//W3C//DTD SVG 1.1//EN" "http://www.w3.org/Graphics/SVG/1.1/DTD/svg11.dtd">
<svg version="1.1"
	 id="svg4541" xmlns:sodipodi="http://sodipodi.sourceforge.net/DTD/sodipodi-0.dtd" xmlns:inkscape="http://www.inkscape.org/namespaces/inkscape" xmlns:dc="http://purl.org/dc/elements/1.1/" xmlns:cc="http://creativecommons.org/ns#" xmlns:rdf="http://www.w3.org/1999/02/22-rdf-syntax-ns#" xmlns:svg="http://www.w3.org/2000/svg" inkscape:version="0.92.2 5c3e80d, 2017-08-06" sodipodi:docname="VCF.svg"
	 xmlns="http://www.w3.org/2000/svg" xmlns:xlink="http://www.w3.org/1999/xlink" x="0px" y="0px" width="120.18px" height="380px"
	 viewBox="0 0 120.18 380" enable-background="new 0 0 120.18 380" xml:space="preserve">
<g>
	<path d="M-7.693,0.065l135.566-0.042v379.911l-135.566,0.043V0.065z"/>
</g>
<line fill="none" stroke="#505151" stroke-width="1.5" stroke-linecap="square" stroke-miterlimit="10" x1="27.812" y1="321.479" x2="27.812" y2="280.039"/>
<line fill="none" stroke="#505151" stroke-width="1.5" stroke-miterlimit="10" x1="92.852" y1="321.479" x2="92.852" y2="177.978"/>
<line fill="none" stroke="#505151" stroke-width="1.5" stroke-miterlimit="10" x1="59.832" y1="321.479" x2="59.832" y2="43.892"/>
<path fill="none" stroke="#505151" stroke-width="1.5" stroke-miterlimit="10" d="M81.34,334.008"/>
<path fill="none" stroke="#505151" stroke-width="1.5" stroke-miterlimit="10" d="M69.84,334.008"/>
<sodipodi:namedview  id="base" pagecolor="#ffffff" bordercolor="#666666" borderopacity="1.0" inkscape:zoom="1.979899" inkscape:cx="-12.284485" inkscape:cy="138.75941" showgrid="false" fit-margin-top="0" fit-margin-left="0" units="px" inkscape:pageopacity="0.0" fit-margin-right="0" inkscape:document-units="mm" inkscape:pageshadow="2" inkscape:current-layer="g13178" inkscape:window-x="0" inkscape:window-height="1422" inkscape:window-y="18" fit-margin-bottom="0" inkscape:window-width="2560" inkscape:window-maximized="0">
	</sodipodi:namedview>
<g>
	<path fill="#FFFFFF" stroke="#FFFFFF" stroke-width="0.25" stroke-miterlimit="10" d="M60.129,366.671
		c-0.378,0.168-1.092,0.31-1.899,0.31c-2.22,0-3.635-1.347-3.635-3.502c0-2.004,1.373-3.644,3.929-3.644
		c0.562,0,1.186,0.101,1.625,0.269l-0.336,1.582c-0.259-0.104-0.637-0.211-1.188-0.211c-1.12,0-1.854,0.799-1.835,1.92
		c0,1.26,0.841,1.92,1.877,1.92c0.505,0,0.896-0.086,1.22-0.211L60.129,366.671z"/>
	<path fill="#FFFFFF" stroke="#FFFFFF" stroke-width="0.25" stroke-miterlimit="10" d="M62.045,361.066h1.271l0.042-0.447
		c0.105-0.938,0.64-3.039,3.04-3.039c0.479,0,0.911,0.098,1.163,0.225l-0.336,1.514c-0.169-0.062-0.396-0.127-0.659-0.127
		c-0.691,0-1.027,0.514-1.111,1.271l-0.093,0.604H66.8v1.482h-1.61l-0.312,2.493c-0.211,1.709-0.785,3.063-2.771,3.063
		c-0.567-0.021-1.062-0.125-1.271-0.234l0.294-1.48c0.21,0.084,0.438,0.108,0.659,0.108c0.691-0.019,0.938-0.396,1.14-1.985
		l0.229-1.965H62.05v-1.482H62.045L62.045,361.066z"/>
</g>
<path fill="none" stroke="#6C6C6D" stroke-miterlimit="10" d="M84.956,272.529"/>
<path fill="none" stroke="#6C6C6D" stroke-miterlimit="10" d="M51.257,262.523"/>
<path fill="none" stroke="#6C6C6D" stroke-miterlimit="10" d="M51.257,282.539"/>
<path fill="none" stroke="#6C6C6D" stroke-miterlimit="10" d="M38.465,282.539"/>
<path fill="none" stroke="#6C6C6D" stroke-miterlimit="10" d="M84.956,327.561"/>
<path fill="none" stroke="#6C6C6D" stroke-miterlimit="10" d="M57.261,322.559"/>
<path fill="none" stroke="#6C6C6D" stroke-miterlimit="10" d="M84.956,297.542"/>
<path fill="none" stroke="#6C6C6D" stroke-miterlimit="10" d="M51.257,292.541"/>
<path fill="none" stroke="#303232" stroke-miterlimit="10" d="M60.833,312.561"/>
<path fill="none" stroke="#303232" stroke-miterlimit="10" d="M44.469,312.561"/>
<path fill="none" stroke="#303232" stroke-miterlimit="10" d="M84.956,282.535"/>
<path fill="none" stroke="#303232" stroke-miterlimit="10" d="M60.833,272.529"/>
<path fill="none" stroke="#303232" stroke-miterlimit="10" d="M84.956,337.564"/>
<path fill="none" stroke="#303232" stroke-miterlimit="10" d="M60.833,332.564"/>
<path fill="none" stroke="#303232" stroke-miterlimit="10" d="M85.957,307.548"/>
<path fill="none" stroke="#303232" stroke-miterlimit="10" d="M61.195,302.547"/>
<path fill="none" stroke="#6C6C6D" stroke-miterlimit="10" d="M51.089,262.523"/>
<path fill="none" stroke="#6C6C6D" stroke-miterlimit="10" d="M57.093,322.559"/>
<path fill="none" stroke="#303232" stroke-miterlimit="10" d="M61.095,272.529"/>
<path fill="none" stroke="#303232" stroke-miterlimit="10" d="M61.095,332.564"/>
<g>
	<path fill="#FFFFFF" stroke="#FFFFFF" stroke-width="0.5" stroke-miterlimit="10" d="M89.946,63.118c0,1.985-1.199,3.19-2.979,3.19
		c-1.8,0-2.854-1.354-2.854-3.088c0-1.813,1.153-3.188,2.946-3.188C88.927,60.051,89.946,61.446,89.946,63.118z M85.559,63.2
		c0,1.188,0.562,2.023,1.479,2.023c0.928,0,1.459-0.883,1.459-2.061c0-1.092-0.521-2.025-1.475-2.025
		C86.1,61.141,85.559,62.021,85.559,63.2z"/>
	<path fill="#FFFFFF" stroke="#FFFFFF" stroke-width="0.5" stroke-miterlimit="10" d="M92.212,60.148v3.492
		c0,1.045,0.396,1.576,1.1,1.576c0.729,0,1.116-0.513,1.116-1.576v-3.492h1.369v3.402c0,1.866-0.945,2.764-2.53,2.764
		c-1.521,0-2.433-0.846-2.433-2.774v-3.391L92.212,60.148L92.212,60.148z"/>
	<path fill="#FFFFFF" stroke="#FFFFFF" stroke-width="0.5" stroke-miterlimit="10" d="M98.154,61.303h-1.637v-1.151h4.664v1.151
		h-1.646v4.914h-1.385L98.154,61.303L98.154,61.303z"/>
</g>
<path fill="#2C3540" stroke="#231F20" stroke-width="2" stroke-miterlimit="10" d="M109.09,270.223c0,1.563-1.271,2.834-2.835,2.834
	h-91.33c-1.565,0-2.834-1.271-2.834-2.834V72.334c0-1.565,1.269-2.834,2.834-2.834h91.331c1.562,0,2.835,1.269,2.835,2.834
	l-0.001,101.832V270.223z"/>
<path fill="none" stroke="#505151" stroke-width="1.5" stroke-miterlimit="10" d="M57.318,167"/>
<path fill="none" stroke="#505151" stroke-width="1.5" stroke-miterlimit="10" d="M56.832,334.008"/>
<path fill="none" stroke="#505151" stroke-width="1.5" stroke-miterlimit="10" d="M92.339,167"/>
<rect x="7.924" y="307.548" width="99.667" height="11.955"/>
<line fill="none" stroke="#505151" stroke-width="1.5" stroke-linecap="square" stroke-miterlimit="10" x1="59.832" y1="280.035" x2="27.812" y2="280.035"/>
<line fill="none" stroke="#505151" stroke-width="1.5" stroke-linecap="square" stroke-miterlimit="10" x1="81.842" y1="43.893" x2="59.832" y2="43.893"/>
<circle fill="#595A5A" stroke="#595A5A" stroke-width="10" stroke-miterlimit="10" cx="92.506" cy="43.605" r="9.395"/>
<g>
	<path fill="#FFFFFF" stroke="#FFFFFF" stroke-width="1.5" stroke-miterlimit="10" d="M42.001,20.386
		c0.455-0.096,1.175-0.168,1.906-0.168c1.044,0,1.716,0.18,2.219,0.588c0.42,0.312,0.672,0.792,0.672,1.427
		c0,0.779-0.516,1.463-1.367,1.775v0.024c0.769,0.192,1.667,0.828,1.667,2.027c0,0.696-0.274,1.223-0.684,1.619
		c-0.563,0.516-1.476,0.755-2.794,0.755c-0.721,0-1.271-0.048-1.619-0.096V20.386z M43.044,23.696h0.947
		c1.104,0,1.751-0.576,1.751-1.355c0-0.948-0.72-1.319-1.774-1.319c-0.479,0-0.756,0.036-0.924,0.072V23.696z M43.044,27.57
		c0.204,0.036,0.504,0.048,0.876,0.048c1.079,0,2.074-0.396,2.074-1.571c0-1.103-0.947-1.559-2.087-1.559h-0.863V27.57z"/>
	<path fill="#FFFFFF" stroke="#FFFFFF" stroke-width="1.5" stroke-miterlimit="10" d="M49.548,20.278v4.785
		c0,1.811,0.804,2.579,1.883,2.579c1.199,0,1.967-0.792,1.967-2.579v-4.785h1.057v4.713c0,2.482-1.309,3.502-3.06,3.502
		c-1.653,0-2.901-0.947-2.901-3.454v-4.761H49.548z"/>
	<path fill="#FFFFFF" stroke="#FFFFFF" stroke-width="1.5" stroke-miterlimit="10" d="M56.269,20.278h4.354v0.875h-3.312v2.687h3.06
		v0.863h-3.06v3.658h-1.043V20.278L56.269,20.278z"/>
	<path fill="#FFFFFF" stroke="#FFFFFF" stroke-width="1.5" stroke-miterlimit="10" d="M62.113,20.278h4.354v0.875h-3.31v2.687h3.058
		v0.863h-3.058v3.658h-1.045V20.278z"/>
	<path fill="#FFFFFF" stroke="#FFFFFF" stroke-width="1.5" stroke-miterlimit="10" d="M72.142,24.572H69v2.915h3.502v0.875h-4.546
		v-8.083h4.365v0.875H69v2.555h3.142V24.572z"/>
	<path fill="#FFFFFF" stroke="#FFFFFF" stroke-width="1.5" stroke-miterlimit="10" d="M73.861,20.386
		c0.528-0.108,1.283-0.168,2.003-0.168c1.115,0,1.836,0.204,2.34,0.66c0.407,0.36,0.636,0.912,0.636,1.535
		c0,1.067-0.672,1.775-1.523,2.063v0.036c0.624,0.216,0.995,0.792,1.188,1.631c0.264,1.127,0.456,1.907,0.624,2.219h-1.08
		c-0.132-0.228-0.312-0.923-0.539-1.931c-0.24-1.115-0.672-1.535-1.619-1.571h-0.982v3.502h-1.045v-7.976H73.861z M74.905,24.068
		h1.067c1.115,0,1.822-0.612,1.822-1.535c0-1.043-0.755-1.5-1.858-1.511c-0.504,0-0.862,0.048-1.031,0.096V24.068z"/>
</g>
<g>
	<path fill="#FFFFFF" stroke="#FFFFFF" stroke-miterlimit="10" d="M25.054,311.073v6.067h-0.783v-6.067H25.054z"/>
	<path fill="#FFFFFF" stroke="#FFFFFF" stroke-miterlimit="10" d="M26.422,317.141v-6.066h0.854l1.944,3.068
		c0.45,0.711,0.801,1.352,1.089,1.973l0.019-0.01c-0.072-0.811-0.091-1.549-0.091-2.494v-2.537h0.738v6.066h-0.792l-1.927-3.078
		c-0.423-0.676-0.828-1.369-1.134-2.025l-0.027,0.009c0.045,0.767,0.063,1.495,0.063,2.503v2.594h-0.737V317.141z"/>
</g>
<g>
	<path fill="#FFFFFF" stroke="#FFFFFF" stroke-miterlimit="10" d="M55.291,311.073h3.268v0.657h-2.484v2.017h2.296v0.647h-2.296
		v2.746h-0.783V311.073z"/>
	<path fill="#FFFFFF" stroke="#FFFFFF" stroke-miterlimit="10" d="M61.581,311.154c0.342-0.072,0.882-0.127,1.432-0.127
		c0.783,0,1.287,0.136,1.665,0.44c0.315,0.234,0.504,0.595,0.504,1.071c0,0.585-0.387,1.1-1.025,1.333v0.019
		c0.575,0.145,1.252,0.621,1.252,1.521c0,0.522-0.207,0.918-0.515,1.216c-0.423,0.387-1.106,0.566-2.098,0.566
		c-0.54,0-0.954-0.036-1.215-0.071V311.154z M62.365,313.639h0.711c0.827,0,1.313-0.433,1.313-1.018c0-0.711-0.54-0.99-1.332-0.99
		c-0.359,0-0.566,0.027-0.692,0.055V313.639L62.365,313.639z M62.365,316.547c0.152,0.026,0.378,0.035,0.656,0.035
		c0.812,0,1.559-0.297,1.559-1.18c0-0.827-0.712-1.17-1.566-1.17h-0.647L62.365,316.547L62.365,316.547z"/>
</g>
<g>
	<path fill="#FFFFFF" stroke="#FFFFFF" stroke-miterlimit="10" d="M78.304,311.073h0.783v5.409h2.593v0.658h-3.376V311.073z"/>
	<path fill="#FFFFFF" stroke="#FFFFFF" stroke-miterlimit="10" d="M85.695,314.296h-2.358v2.188h2.629v0.656h-3.412v-6.066h3.277
		v0.656h-2.494v1.918h2.358V314.296z"/>
	<path fill="#FFFFFF" stroke="#FFFFFF" stroke-miterlimit="10" d="M86.98,317.141v-6.066h0.855l1.943,3.068
		c0.45,0.711,0.803,1.352,1.091,1.973l0.018-0.01c-0.071-0.811-0.09-1.549-0.09-2.494v-2.537h0.738v6.066h-0.792l-1.928-3.078
		c-0.423-0.676-0.828-1.369-1.135-2.025l-0.026,0.009c0.046,0.767,0.062,1.495,0.062,2.503v2.594H86.98V317.141z"/>
	<path fill="#FFFFFF" stroke="#FFFFFF" stroke-miterlimit="10" d="M97.521,316.87c-0.352,0.127-1.045,0.334-1.863,0.334
		c-0.919,0-1.675-0.233-2.27-0.802c-0.521-0.504-0.846-1.314-0.846-2.26c0.009-1.811,1.251-3.134,3.285-3.134
		c0.702,0,1.252,0.153,1.513,0.279l-0.188,0.639c-0.323-0.144-0.729-0.261-1.342-0.261c-1.477,0-2.438,0.918-2.438,2.439
		c0,1.539,0.927,2.449,2.341,2.449c0.513,0,0.864-0.072,1.044-0.162v-1.811h-1.233v-0.63h1.999L97.521,316.87L97.521,316.87z"/>
	<path fill="#FFFFFF" stroke="#FFFFFF" stroke-miterlimit="10" d="M99.868,311.739h-1.847v-0.666h4.492v0.666h-1.854v5.401h-0.792
		V311.739z"/>
	<path fill="#FFFFFF" stroke="#FFFFFF" stroke-miterlimit="10" d="M103.972,311.073v2.538h2.937v-2.538h0.792v6.067h-0.792v-2.846
		h-2.937v2.846h-0.783v-6.067H103.972z"/>
</g>
<circle fill="#595A5A" stroke="#595A5A" stroke-width="7.6943" stroke-miterlimit="10" cx="59.81" cy="293.641" r="7.229"/>
<circle fill="#595A5A" stroke="#595A5A" stroke-width="7.6943" stroke-miterlimit="10" cx="92.83" cy="293.641" r="7.229"/>
</svg>
