<?xml version="1.0" encoding="utf-8"?>
<!-- Generator: Adobe Illustrator 16.0.0, SVG Export Plug-In . SVG Version: 6.00 Build 0)  -->
<!DOCTYPE svg PUBLIC "-//W3C//DTD SVG 1.1//EN" "http://www.w3.org/Graphics/SVG/1.1/DTD/svg11.dtd">
<svg version="1.1"
	 id="svg12553" xmlns:osb="http://www.openswatchbook.org/uri/2009/osb" xmlns:dc="http://purl.org/dc/elements/1.1/" xmlns:cc="http://creativecommons.org/ns#" xmlns:rdf="http://www.w3.org/1999/02/22-rdf-syntax-ns#" xmlns:svg="http://www.w3.org/2000/svg"
	 xmlns="http://www.w3.org/2000/svg" xmlns:xlink="http://www.w3.org/1999/xlink" x="0px" y="0px" width="28px" height="380px"
	 viewBox="0 0 28 380" enable-background="new 0 0 28 380" xml:space="preserve">
<rect width="30.001" height="380"/>
<g id="g13122" transform="matrix(0.27602379,0,0,0.27602379,354.09618,57.736346)">
	<g id="g13178" transform="translate(-167.07644,-20.557569)">
		<g id="g13224" transform="translate(-99.2314,6.0949065)">
			<g id="path30351">
			</g>
		</g>
	</g>
</g>
<g id="text4860">
</g>
<g id="flowRoot1009">
</g>
<g>
	<path fill="#FFFFFF" stroke="#FFFFFF" stroke-width="0.25" stroke-miterlimit="10" d="M15.522,367.67
		c-0.379,0.168-1.083,0.309-1.896,0.309c-2.213,0-3.628-1.346-3.628-3.502c0-2.004,1.373-3.643,3.922-3.643
		c0.561,0,1.18,0.1,1.625,0.268l-0.336,1.582c-0.252-0.104-0.641-0.211-1.19-0.211c-1.121,0-1.849,0.799-1.835,1.92
		c0,1.26,0.84,1.92,1.877,1.92c0.5,0,0.896-0.086,1.212-0.211L15.522,367.67z"/>
	<path fill="#FFFFFF" stroke="#FFFFFF" stroke-width="0.25" stroke-miterlimit="10" d="M17.438,362.066h1.273l0.042-0.448
		c0.11-0.938,0.63-3.039,3.039-3.039c0.478,0,0.911,0.098,1.163,0.224l-0.336,1.514c-0.169-0.062-0.395-0.127-0.659-0.127
		c-0.7,0-1.036,0.506-1.12,1.271l-0.084,0.605h1.43v1.479h-1.604l-0.312,2.493c-0.211,1.709-0.785,3.062-2.771,3.062
		c-0.575-0.015-1.063-0.125-1.274-0.229l0.295-1.479c0.209,0.084,0.438,0.104,0.658,0.104c0.699-0.021,0.938-0.396,1.139-1.98
		l0.229-1.97h-1.104v-1.479H17.438L17.438,362.066L17.438,362.066z"/>
</g>
<g>
	<path stroke="#000000" stroke-miterlimit="10" d="M53.773,122.597c0.379-0.08,0.979-0.14,1.59-0.14c0.869,0,1.43,0.15,1.85,0.49
		c0.354,0.26,0.562,0.66,0.562,1.188c0,0.65-0.437,1.22-1.146,1.479v0.02c0.646,0.16,1.396,0.689,1.396,1.689
		c0,0.58-0.229,1.02-0.568,1.349c-0.471,0.43-1.229,0.63-2.328,0.63c-0.604,0-1.062-0.04-1.354-0.08L53.773,122.597L53.773,122.597z
		 M54.643,125.354h0.791c0.92,0,1.459-0.48,1.459-1.129c0-0.79-0.602-1.1-1.479-1.1c-0.396,0-0.631,0.03-0.771,0.06V125.354
		L54.643,125.354z M54.643,128.583c0.17,0.03,0.422,0.04,0.729,0.04c0.899,0,1.729-0.33,1.729-1.309c0-0.92-0.791-1.299-1.74-1.299
		h-0.721L54.643,128.583L54.643,128.583z"/>
</g>
<g>
	<path fill="#FFFFFF" stroke="#FFFFFF" d="M5.318,18.085h4.941v1.499H7.153v1.847h2.902v1.487H7.153v3.25H5.318V18.085z"/>
	<path fill="#FFFFFF" stroke="#FFFFFF" d="M11.642,18.085h1.811v3.574h0.036c0.18-0.312,0.372-0.6,0.552-0.887l1.835-2.687h2.243
		l-2.676,3.442l2.818,4.642h-2.137l-1.979-3.49l-0.696,0.852v2.639h-1.81L11.642,18.085L11.642,18.085z"/>
	<path fill="#FFFFFF" stroke="#FFFFFF" d="M20.643,19.621h-2.172v-1.535h6.213v1.535h-2.207v6.548h-1.834V19.621z"/>
</g>
<g>
	<path fill="#FFFFFF" stroke="#FFFFFF" stroke-miterlimit="10" d="M12.443,59.758v6.736h-1.529v-6.736H12.443z"/>
	<path fill="#FFFFFF" stroke="#FFFFFF" stroke-miterlimit="10" d="M14.264,66.494v-6.736h1.778l1.399,2.469
		c0.397,0.709,0.8,1.549,1.1,2.309h0.029c-0.1-0.89-0.129-1.799-0.129-2.809v-1.969h1.396v6.736h-1.602L16.8,63.895
		c-0.397-0.72-0.839-1.589-1.169-2.378l-0.029,0.01c0.041,0.89,0.062,1.839,0.062,2.938v2.029H14.264z"/>
</g>
<path fill="#27282D" d="M26.998,272.107c0,1.562-1.27,2.834-2.834,2.834H6.832c-1.564,0-2.834-1.271-2.834-2.834V136.873
	c0-1.565,1.27-2.834,2.834-2.834h17.333c1.565,0,2.834,1.269,2.834,2.834L26.998,272.107L26.998,272.107z"/>
<circle fill="#595A5A" stroke="#595A5A" stroke-width="10" stroke-miterlimit="10" cx="15.601" cy="333.601" r="9.396"/>
</svg>
