<?xml version="1.0" encoding="utf-8"?>
<!-- Generator: Adobe Illustrator 16.0.0, SVG Export Plug-In . SVG Version: 6.00 Build 0)  -->
<!DOCTYPE svg PUBLIC "-//W3C//DTD SVG 1.1//EN" "http://www.w3.org/Graphics/SVG/1.1/DTD/svg11.dtd">
<svg version="1.1"
	 id="svg12553" xmlns:osb="http://www.openswatchbook.org/uri/2009/osb" xmlns:dc="http://purl.org/dc/elements/1.1/" xmlns:cc="http://creativecommons.org/ns#" xmlns:rdf="http://www.w3.org/1999/02/22-rdf-syntax-ns#" xmlns:svg="http://www.w3.org/2000/svg"
	 xmlns="http://www.w3.org/2000/svg" xmlns:xlink="http://www.w3.org/1999/xlink" x="0px" y="0px" width="28px" height="380px"
	 viewBox="0 0 28 380" enable-background="new 0 0 28 380" xml:space="preserve">
<rect width="30.001" height="380"/>
<g id="g13122" transform="matrix(0.27602379,0,0,0.27602379,354.09618,57.736346)">
	<g id="g13178" transform="translate(-167.07644,-20.557569)">
		<g id="g13224" transform="translate(-99.2314,6.0949065)">
			<g id="path30351">
			</g>
		</g>
	</g>
</g>
<g id="text4860">
</g>
<g id="flowRoot1009">
</g>
<g>
	<path fill="#FFFFFF" stroke="#FFFFFF" stroke-width="0.25" stroke-miterlimit="10" d="M15.522,367.67
		c-0.379,0.168-1.083,0.309-1.896,0.309c-2.213,0-3.628-1.346-3.628-3.502c0-2.004,1.373-3.643,3.922-3.643
		c0.561,0,1.179,0.1,1.625,0.268l-0.336,1.582c-0.252-0.104-0.64-0.211-1.19-0.211c-1.121,0-1.849,0.799-1.835,1.92
		c0,1.26,0.84,1.92,1.877,1.92c0.5,0,0.896-0.086,1.213-0.211L15.522,367.67z"/>
	<path fill="#FFFFFF" stroke="#FFFFFF" stroke-width="0.25" stroke-miterlimit="10" d="M17.438,362.066h1.273l0.042-0.448
		c0.11-0.938,0.63-3.039,3.039-3.039c0.478,0,0.911,0.098,1.163,0.224l-0.336,1.514c-0.169-0.062-0.395-0.127-0.659-0.127
		c-0.7,0-1.036,0.506-1.12,1.271l-0.084,0.605h1.43v1.479h-1.604l-0.312,2.493c-0.211,1.709-0.785,3.062-2.771,3.062
		c-0.575-0.015-1.063-0.125-1.274-0.229l0.295-1.479c0.209,0.084,0.438,0.104,0.658,0.104c0.699-0.021,0.938-0.396,1.139-1.98
		l0.229-1.97h-1.104v-1.479H17.438L17.438,362.066L17.438,362.066z"/>
</g>
<path fill="#27282D" d="M26.998,344.15c0,1.562-1.27,2.834-2.834,2.834H6.832c-1.564,0-2.834-1.271-2.834-2.834V45.814
	c0-1.565,1.27-2.834,2.834-2.834h17.333c1.565,0,2.834,1.269,2.834,2.834L26.998,344.15L26.998,344.15z"/>
<g>
	<path fill="#FFFFFF" stroke="#FFFFFF" stroke-width="1.5" stroke-miterlimit="10" d="M5.934,18.417h1.044v7.208h3.454V26.5H5.934
		V18.417z"/>
	<path fill="#FFFFFF" stroke="#FFFFFF" stroke-width="1.5" stroke-miterlimit="10" d="M12.797,18.525
		c0.455-0.096,1.174-0.168,1.905-0.168c1.044,0,1.716,0.18,2.219,0.588c0.42,0.312,0.672,0.792,0.672,1.427
		c0,0.779-0.516,1.463-1.366,1.775v0.024c0.768,0.192,1.666,0.828,1.666,2.027c0,0.696-0.274,1.223-0.684,1.619
		c-0.562,0.516-1.475,0.755-2.793,0.755c-0.72,0-1.271-0.048-1.619-0.096V18.525z M13.839,21.835h0.947
		c1.104,0,1.751-0.576,1.751-1.355c0-0.948-0.721-1.319-1.773-1.319c-0.48,0-0.756,0.036-0.924,0.072L13.839,21.835L13.839,21.835z
		 M13.839,25.709c0.204,0.036,0.504,0.048,0.875,0.048c1.079,0,2.074-0.396,2.074-1.571c0-1.103-0.947-1.559-2.087-1.559h-0.863
		L13.839,25.709L13.839,25.709z"/>
	<path fill="#FFFFFF" stroke="#FFFFFF" stroke-width="1.5" stroke-miterlimit="10" d="M20.5,18.417h1.043v7.208h3.454V26.5H20.5
		V18.417z"/>
</g>
</svg>
