<?xml version="1.0" encoding="utf-8"?>
<!-- Generator: Adobe Illustrator 16.0.0, SVG Export Plug-In . SVG Version: 6.00 Build 0)  -->
<!DOCTYPE svg PUBLIC "-//W3C//DTD SVG 1.1//EN" "http://www.w3.org/Graphics/SVG/1.1/DTD/svg11.dtd">
<svg version="1.1"
	 id="svg12553" xmlns:osb="http://www.openswatchbook.org/uri/2009/osb" xmlns:dc="http://purl.org/dc/elements/1.1/" xmlns:cc="http://creativecommons.org/ns#" xmlns:rdf="http://www.w3.org/1999/02/22-rdf-syntax-ns#" xmlns:svg="http://www.w3.org/2000/svg"
	 xmlns="http://www.w3.org/2000/svg" xmlns:xlink="http://www.w3.org/1999/xlink" x="0px" y="0px" width="28px" height="380px"
	 viewBox="0 0 28 380" enable-background="new 0 0 28 380" xml:space="preserve">
<rect width="30.001" height="380"/>
<g id="g13122" transform="matrix(0.27602379,0,0,0.27602379,354.09618,57.736346)">
	<g id="g13178" transform="translate(-167.07644,-20.557569)">
		<g id="g13224" transform="translate(-99.2314,6.0949065)">
			<g id="path30351">
			</g>
		</g>
	</g>
</g>
<g id="text4860">
</g>
<g id="flowRoot1009">
</g>
<circle fill="#595A5A" stroke="#595A5A" stroke-width="10" stroke-miterlimit="10" cx="15.458" cy="333.601" r="9.396"/>
<g>
	<path fill="#FFFFFF" stroke="#FFFFFF" stroke-width="0.25" stroke-miterlimit="10" d="M15.522,367.67
		c-0.379,0.168-1.088,0.309-1.901,0.309c-2.213,0-3.628-1.346-3.628-3.502c0-2.004,1.373-3.643,3.922-3.643
		c0.561,0,1.177,0.1,1.625,0.268l-0.336,1.582c-0.252-0.104-0.635-0.211-1.19-0.211c-1.121,0-1.849,0.799-1.835,1.92
		c0,1.26,0.84,1.92,1.877,1.92c0.503,0,0.896-0.086,1.218-0.211L15.522,367.67z"/>
	<path fill="#FFFFFF" stroke="#FFFFFF" stroke-width="0.25" stroke-miterlimit="10" d="M17.438,362.066h1.273l0.042-0.448
		c0.11-0.938,0.63-3.039,3.039-3.039c0.478,0,0.911,0.098,1.163,0.224l-0.336,1.514c-0.169-0.062-0.395-0.127-0.659-0.127
		c-0.7,0-1.036,0.506-1.12,1.271l-0.084,0.605h1.43v1.479h-1.604l-0.312,2.493c-0.211,1.709-0.785,3.062-2.771,3.062
		c-0.575-0.015-1.063-0.125-1.274-0.229l0.295-1.479c0.209,0.084,0.437,0.104,0.657,0.104c0.7-0.021,0.938-0.396,1.14-1.98
		l0.229-1.97h-1.104v-1.479H17.438L17.438,362.066L17.438,362.066z"/>
</g>
<circle fill="#595A5A" stroke="#595A5A" stroke-width="7.6943" stroke-miterlimit="10" cx="15.549" cy="307.275" r="7.229"/>
<path fill="#595A5A" d="M26.998,252.096c0,1.564-1.27,2.834-2.834,2.834H6.832c-1.564,0-2.834-1.27-2.834-2.834V61.825
	c0-1.565,1.27-2.834,2.834-2.834h17.333c1.565,0,2.834,1.269,2.834,2.834L26.998,252.096L26.998,252.096z"/>
<path fill="#27282D" d="M26.998,252.096c0,1.564-1.27,2.834-2.834,2.834H6.832c-1.564,0-2.834-1.27-2.834-2.834V61.825
	c0-1.565,1.27-2.834,2.834-2.834h17.333c1.565,0,2.834,1.269,2.834,2.834L26.998,252.096L26.998,252.096z"/>
</svg>
